<svg width="78" height="78" viewBox="0 0 78 78" fill="none" xmlns="http://www.w3.org/2000/svg">
<path d="M0 7.85499C0 3.5168 3.5168 0 7.85498 0H70.145C74.4832 0 78 3.5168 78 7.85499V38.9607H0V7.85499Z" fill="#015ABC"/>
<path d="M0 38.9607H78V70.0664C78 74.4046 74.4832 77.9214 70.145 77.9214H7.85498C3.51679 77.9214 0 74.4046 0 70.0664V38.9607Z" fill="#FED702"/>
<path fill-rule="evenodd" clip-rule="evenodd" d="M38.7643 66.6102C54.1432 66.6102 66.6102 54.1432 66.6102 38.7643C66.6102 23.3854 54.1432 10.9184 38.7643 10.9184C23.3854 10.9184 10.9184 23.3854 10.9184 38.7643C10.9184 54.1432 23.3854 66.6102 38.7643 66.6102ZM38.7643 69.1238C55.5314 69.1238 69.1238 55.5314 69.1238 38.7643C69.1238 21.9972 55.5314 8.40479 38.7643 8.40479C21.9972 8.40479 8.40479 21.9972 8.40479 38.7643C8.40479 55.5314 21.9972 69.1238 38.7643 69.1238Z" fill="#015ABC"/>
<path fill-rule="evenodd" clip-rule="evenodd" d="M69.1232 38.9607C69.1236 38.8953 69.1238 38.8298 69.1238 38.7643C69.1238 21.9972 55.5314 8.40479 38.7643 8.40479C21.9972 8.40479 8.40479 21.9972 8.40479 38.7643C8.40479 38.8298 8.40499 38.8953 8.40541 38.9607H10.9191C10.9186 38.8953 10.9184 38.8298 10.9184 38.7643C10.9184 23.3854 23.3854 10.9184 38.7643 10.9184C54.1432 10.9184 66.6102 23.3854 66.6102 38.7643C66.6102 38.8298 66.61 38.8953 66.6096 38.9607H69.1232Z" fill="#FED702"/>
<path d="M43.5501 17.3292C42.5889 17.3268 41.6469 17.5981 40.8342 18.1114C40.0215 18.6246 39.3718 19.3586 38.9609 20.2275C38.4762 19.1742 37.6447 18.3191 36.6053 17.8053C35.5659 17.2915 34.3816 17.15 33.2504 17.4045C32.1192 17.659 31.1096 18.2941 30.3905 19.2036C29.6713 20.1131 29.2862 21.2419 29.2994 22.4012C29.2994 27.7148 38.9609 34.7191 38.9609 34.7191C38.9609 34.7191 48.6223 27.7148 48.6223 22.4012C48.6223 21.056 48.0879 19.7659 47.1367 18.8147C46.1855 17.8636 44.8953 17.3292 43.5501 17.3292Z" fill="#FED702"/>
<path fill-rule="evenodd" clip-rule="evenodd" d="M38.9599 20.4133L38.8895 20.2603C38.4124 19.2234 37.5938 18.3816 36.5705 17.8757C35.5472 17.3698 34.3813 17.2306 33.2676 17.4811C32.154 17.7317 31.1601 18.3569 30.4521 19.2523C29.7441 20.1477 29.3649 21.259 29.3779 22.4003L29.378 22.4012C29.378 23.7074 29.9725 25.1261 30.875 26.525C31.7766 27.9224 32.9801 29.2917 34.1857 30.4972C35.391 31.7024 36.5965 32.7422 37.5009 33.4808C37.9531 33.85 38.3298 34.1439 38.5934 34.3453C38.7252 34.446 38.8287 34.5237 38.8992 34.5761C38.9239 34.5944 38.9445 34.6096 38.9609 34.6217C38.9772 34.6096 38.9979 34.5944 39.0225 34.5761C39.093 34.5237 39.1965 34.446 39.3283 34.3453C39.5919 34.1439 39.9686 33.85 40.4208 33.4808C41.3252 32.7422 42.5308 31.7024 43.7361 30.4972C44.9417 29.2917 46.1451 27.9224 47.0467 26.525C47.9493 25.1261 48.5438 23.7074 48.5438 22.4012C48.5438 21.0769 48.0177 19.8068 47.0812 18.8703C46.1447 17.9338 44.8745 17.4077 43.5501 17.4077V17.3294L43.5499 17.4077C42.6036 17.4054 41.6762 17.6725 40.8761 18.1778C40.0761 18.6831 39.4364 19.4056 39.0319 20.2611L38.9599 20.4133ZM38.9609 34.7191C38.9609 34.7191 29.2994 27.7148 29.2994 22.4012C29.2862 21.2419 29.6713 20.1131 30.3905 19.2036C31.1096 18.2941 32.1192 17.659 33.2504 17.4045C34.3816 17.15 35.5659 17.2915 36.6053 17.8053C37.6145 18.3042 38.4277 19.1247 38.9177 20.136C38.9324 20.1663 38.9468 20.1968 38.9609 20.2275C38.9753 20.197 38.99 20.1667 39.005 20.1365C39.4176 19.3073 40.0501 18.6066 40.8342 18.1114C41.6469 17.5981 42.5889 17.3268 43.5501 17.3292C44.8953 17.3292 46.1855 17.8636 47.1367 18.8147C48.0879 19.7659 48.6223 21.056 48.6223 22.4012C48.6223 27.7148 38.9609 34.7191 38.9609 34.7191Z" fill="#FED702"/>
<path d="M55.5601 47.2407C55.281 46.7906 54.7378 46.5618 53.9487 46.5618C51.8551 46.5618 48.1198 48.1607 47.9616 48.2284C47.6923 48.3446 47.5493 48.6435 47.6278 48.9266C47.7854 49.4981 47.6534 50.1006 47.2573 50.6225C46.7235 51.3259 45.2295 52.5063 41.2109 52.5063C41.2103 52.5063 41.2098 52.5063 41.2092 52.5063C41.0417 52.5063 40.8719 52.5046 40.6974 52.4999C39.8164 52.4789 39.1307 52.3166 38.1822 52.0924C37.5355 51.9389 36.7725 51.7597 35.7519 51.5735C36.2718 51.3697 37.122 51.1934 38.4602 51.1934C39.154 51.1934 39.9402 51.2407 40.7969 51.333C41.2284 51.3797 41.65 51.4036 42.0495 51.4036C44.8945 51.4036 46.3827 50.2045 46.3827 49.0212C46.3827 48.4929 46.0832 48.0089 45.5609 47.6949C44.9038 47.2996 43.925 47.1683 42.723 47.3195C42.3339 47.3685 41.9158 47.3931 41.4808 47.3936C39.6617 47.3936 37.7117 46.9698 35.8258 46.56C34.0166 46.1665 32.3074 45.7947 30.7639 45.7947C30.3917 45.7947 30.037 45.8174 29.7102 45.8618C27.0693 46.2173 25.5451 47.0008 23.7801 47.9074C21.5952 49.0305 18.8764 50.4275 12.8027 51.6651C12.6277 51.7013 12.4782 51.8152 12.3968 51.9745C12.3154 52.1339 12.3107 52.3219 12.3846 52.4853C12.5079 52.7603 15.4493 59.2338 18.246 60.7288C18.3327 60.7749 18.4275 60.7977 18.5223 60.7977C18.6316 60.7977 18.7415 60.7662 18.8375 60.7049C18.9113 60.6582 26.5535 55.7772 30.8977 56.1368C33.2524 56.3283 34.6848 56.6716 35.8356 56.9477C36.3747 57.0773 36.8406 57.1882 37.2971 57.2577L37.9019 57.3523C38.7754 57.4912 39.5302 57.6109 40.3409 57.6109C42.3554 57.6109 44.4845 56.8181 48.1971 54.6844C49.2433 54.0837 50.1732 53.5647 50.9926 53.1082C54.2284 51.3038 55.7055 50.4806 56.026 49.236C56.2301 48.4509 55.8585 47.7217 55.5601 47.2407Z" fill="#015ABC"/>
<path d="M50.5076 60.6807L56.1249 55.0633L61.7422 60.6807L56.1249 66.298L50.5076 60.6807Z" fill="#FED702"/>
<path fill-rule="evenodd" clip-rule="evenodd" d="M69.1239 59.9335H58.6768V57.3413H69.1239V59.9335Z" fill="#015ABC"/>
<path fill-rule="evenodd" clip-rule="evenodd" d="M61.2689 49.4865L61.2689 59.9336L58.6768 59.9336L58.6768 49.4865L61.2689 49.4865Z" fill="#015ABC"/>
<path d="M27.0211 16.6929L21.4038 22.3102L15.7865 16.6929L21.4038 11.0756L27.0211 16.6929Z" fill="#015ABC"/>
<path fill-rule="evenodd" clip-rule="evenodd" d="M8.4048 17.4401L18.8519 17.4401L18.8519 20.0322L8.4048 20.0322L8.4048 17.4401Z" fill="#FED702"/>
<path fill-rule="evenodd" clip-rule="evenodd" d="M16.2598 27.8871L16.2598 17.4399L18.8519 17.4399L18.8519 27.8871L16.2598 27.8871Z" fill="#FED702"/>
</svg>
