<svg width="210" height="79" viewBox="0 0 210 79" fill="none" xmlns="http://www.w3.org/2000/svg">
<path d="M0.760498 8.33809C0.760498 3.98752 4.28733 0.460693 8.63789 0.460693H71.1056C75.4562 0.460693 78.983 3.98752 78.983 8.33809V39.5326H0.760498V8.33809Z" fill="#015ABC"/>
<path d="M0.760498 39.5325H78.983V70.727C78.983 75.0775 75.4562 78.6043 71.1056 78.6043H8.63789C4.28733 78.6043 0.760498 75.0775 0.760498 70.727V39.5325Z" fill="#FED702"/>
<path fill-rule="evenodd" clip-rule="evenodd" d="M39.6355 67.2609C55.0582 67.2609 67.5608 54.7583 67.5608 39.3355C67.5608 23.9128 55.0582 11.4102 39.6355 11.4102C24.2127 11.4102 11.7101 23.9128 11.7101 39.3355C11.7101 54.7583 24.2127 67.2609 39.6355 67.2609ZM39.6355 69.7817C56.4504 69.7817 70.0816 56.1505 70.0816 39.3355C70.0816 22.5206 56.4504 8.8894 39.6355 8.8894C22.8205 8.8894 9.18933 22.5206 9.18933 39.3355C9.18933 56.1505 22.8205 69.7817 39.6355 69.7817Z" fill="#015ABC"/>
<path fill-rule="evenodd" clip-rule="evenodd" d="M70.081 39.5325C70.0814 39.4669 70.0816 39.4012 70.0816 39.3355C70.0816 22.5206 56.4504 8.8894 39.6355 8.8894C22.8205 8.8894 9.18933 22.5206 9.18933 39.3355C9.18933 39.4012 9.18954 39.4669 9.18995 39.5325H11.7108C11.7103 39.4669 11.7101 39.4012 11.7101 39.3355C11.7101 23.9128 24.2127 11.4102 39.6355 11.4102C55.0582 11.4102 67.5608 23.9128 67.5608 39.3355C67.5608 39.4012 67.5606 39.4669 67.5601 39.5325H70.081Z" fill="#FED702"/>
<path d="M44.4348 17.8393C43.4709 17.8369 42.5262 18.109 41.7112 18.6237C40.8962 19.1384 40.2446 19.8745 39.8325 20.7459C39.3465 19.6896 38.5126 18.8321 37.4703 18.3168C36.4279 17.8015 35.2402 17.6596 34.1058 17.9148C32.9713 18.1701 31.9589 18.807 31.2377 19.7191C30.5165 20.6312 30.1302 21.7632 30.1435 22.9258C30.1435 28.2546 39.8325 35.2788 39.8325 35.2788C39.8325 35.2788 49.5216 28.2546 49.5216 22.9258C49.5216 21.5768 48.9857 20.283 48.0317 19.3291C47.0778 18.3752 45.7839 17.8393 44.4348 17.8393V17.8393Z" fill="#FED702"/>
<path fill-rule="evenodd" clip-rule="evenodd" d="M39.8316 20.9322L39.761 20.7788C39.2825 19.7389 38.4616 18.8947 37.4354 18.3874C36.4092 17.8801 35.2399 17.7404 34.1231 17.9917C33.0062 18.243 32.0095 18.87 31.2995 19.7679C30.5895 20.6659 30.2092 21.7803 30.2223 22.9249L30.2223 22.9258C30.2223 24.2358 30.8185 25.6585 31.7236 27.0614C32.6278 28.4628 33.8347 29.8359 35.0437 31.0449C36.2525 32.2536 37.4615 33.2963 38.3685 34.037C38.8219 34.4073 39.1997 34.702 39.4641 34.904C39.5962 35.005 39.7 35.0829 39.7707 35.1354C39.7955 35.1538 39.8161 35.1691 39.8325 35.1812C39.849 35.1691 39.8696 35.1538 39.8944 35.1354C39.9651 35.0829 40.0689 35.005 40.201 34.904C40.4654 34.702 40.8432 34.4073 41.2966 34.037C42.2036 33.2963 43.4126 32.2536 44.6214 31.0449C45.8304 29.8359 47.0373 28.4628 47.9415 27.0614C48.8466 25.6585 49.4428 24.2358 49.4428 22.9258C49.4428 21.5977 48.9152 20.324 47.976 19.3848C47.0368 18.4457 45.763 17.9181 44.4348 17.9181V17.8396L44.4346 17.9181C43.4857 17.9158 42.5556 18.1836 41.7533 18.6903C40.9509 19.1971 40.3094 19.9217 39.9038 20.7796L39.8316 20.9322ZM39.8325 35.2788C39.8325 35.2788 30.1435 28.2546 30.1435 22.9258C30.1302 21.7632 30.5165 20.6312 31.2377 19.7191C31.9589 18.807 32.9713 18.1701 34.1058 17.9148C35.2402 17.6596 36.4279 17.8015 37.4703 18.3168C38.4823 18.8171 39.2978 19.64 39.7892 20.6542C39.804 20.6846 39.8184 20.7152 39.8325 20.7459C39.847 20.7153 39.8618 20.6849 39.8768 20.6546C40.2906 19.8231 40.9248 19.1204 41.7112 18.6237C42.5262 18.109 43.4709 17.8369 44.4348 17.8393C45.7839 17.8393 47.0778 18.3752 48.0317 19.3291C48.9857 20.283 49.5216 21.5768 49.5216 22.9258C49.5216 28.2546 39.8325 35.2788 39.8325 35.2788Z" fill="#FED702"/>
<path d="M56.4792 47.8361C56.1993 47.3847 55.6546 47.1553 54.8631 47.1553C52.7636 47.1553 49.0176 48.7588 48.859 48.8267C48.589 48.9432 48.4455 49.2429 48.5242 49.5269C48.6823 50.1 48.5499 50.7042 48.1527 51.2276C47.6173 51.933 46.1191 53.1168 42.0891 53.1168C42.0885 53.1168 42.0879 53.1168 42.0873 53.1168C41.9194 53.1168 41.7491 53.115 41.5741 53.1104C40.6905 53.0893 40.0029 52.9265 39.0517 52.7017C38.4032 52.5477 37.638 52.368 36.6145 52.1813C37.1359 51.9769 37.9885 51.8001 39.3305 51.8001C40.0263 51.8001 40.8148 51.8476 41.6738 51.9401C42.1066 51.9869 42.5294 52.0109 42.9301 52.0109C45.7831 52.0109 47.2756 50.8084 47.2756 49.6217C47.2756 49.0919 46.9752 48.6066 46.4515 48.2916C45.7925 47.8953 44.8109 47.7635 43.6054 47.9152C43.2153 47.9643 42.7959 47.9889 42.3597 47.9895C40.5354 47.9895 38.5799 47.5645 36.6886 47.1535C34.8742 46.7589 33.1601 46.386 31.6123 46.386C31.239 46.386 30.8833 46.4088 30.5555 46.4533C27.9071 46.8098 26.3786 47.5955 24.6085 48.5047C22.4174 49.6311 19.6909 51.032 13.5998 52.2732C13.4243 52.3095 13.2744 52.4236 13.1927 52.5835C13.1111 52.7433 13.1064 52.9318 13.1805 53.0957C13.3041 53.3715 16.254 59.8634 19.0587 61.3627C19.1456 61.409 19.2406 61.4318 19.3357 61.4318C19.4453 61.4318 19.5556 61.4002 19.6518 61.3387C19.7259 61.2919 27.3898 56.397 31.7464 56.7577C34.1078 56.9497 35.5443 57.2939 36.6985 57.5708C37.2391 57.7008 37.7063 57.812 38.1641 57.8817L38.7706 57.9765C39.6466 58.1159 40.4036 58.2359 41.2166 58.2359C43.2368 58.2359 45.372 57.4409 49.0952 55.3011C50.1444 54.6987 51.0769 54.1782 51.8987 53.7204C55.1437 51.9108 56.625 51.0853 56.9464 49.8372C57.1511 49.0497 56.7784 48.3185 56.4792 47.8361V47.8361Z" fill="#015ABC"/>
<path d="M51.4121 61.3145L57.0454 55.6811L62.6788 61.3145L57.0454 66.9478L51.4121 61.3145Z" fill="#FED702"/>
<path fill-rule="evenodd" clip-rule="evenodd" d="M70.0816 60.5651H59.6046V57.9656H70.0816V60.5651Z" fill="#015ABC"/>
<path fill-rule="evenodd" clip-rule="evenodd" d="M62.2042 50.0882L62.2042 60.5652L59.6046 60.5652L59.6046 50.0882L62.2042 50.0882Z" fill="#015ABC"/>
<path d="M27.8588 17.2012L22.2254 22.8345L16.5921 17.2012L22.2254 11.5678L27.8588 17.2012Z" fill="#015ABC"/>
<path fill-rule="evenodd" clip-rule="evenodd" d="M9.18933 17.9505L19.6663 17.9505L19.6663 20.55L9.18933 20.55L9.18933 17.9505Z" fill="#FED702"/>
<path fill-rule="evenodd" clip-rule="evenodd" d="M17.0667 28.4274L17.0667 17.9504L19.6663 17.9504L19.6663 28.4274L17.0667 28.4274Z" fill="#FED702"/>
<path d="M102.3 31.8442C100.073 31.8442 98.1619 31.3715 96.5654 30.4263C94.9689 29.46 93.7401 28.1366 92.8788 26.456C92.0175 24.7545 91.5869 22.8324 91.5869 20.6898C91.5869 19.2404 91.8075 17.8119 92.2486 16.4045C92.7108 14.9761 93.3935 13.6947 94.2967 12.5603C95.2 11.405 96.3344 10.4912 97.6998 9.81898C99.0862 9.12577 100.693 8.77917 102.521 8.77917C103.151 8.77917 103.834 8.84219 104.569 8.96822C105.304 9.09426 106.029 9.28332 106.743 9.5354C107.478 9.76647 108.129 10.0501 108.697 10.3862L108.571 8.99973H110.776V16.31H109.043C108.875 15.0706 108.508 14.0413 107.94 13.222C107.373 12.4028 106.648 11.7831 105.766 11.363C104.905 10.9218 103.939 10.7013 102.867 10.7013C101.775 10.7013 100.788 10.9533 99.9054 11.4575C99.0442 11.9616 98.309 12.6443 97.6998 13.5056C97.1116 14.3669 96.66 15.3542 96.3449 16.4675C96.0298 17.5808 95.8722 18.7677 95.8722 20.0281C95.8722 21.8767 96.1558 23.5362 96.723 25.0066C97.3112 26.456 98.1409 27.6009 99.2122 28.4412C100.284 29.2604 101.575 29.67 103.088 29.67C103.55 29.67 104.065 29.6385 104.632 29.5755C105.199 29.4915 105.766 29.3654 106.333 29.1974C106.901 29.0293 107.405 28.8298 107.846 28.5987V25.3532C107.846 24.807 107.856 24.2714 107.877 23.7462C107.898 23.2211 107.919 22.7904 107.94 22.4543C107.583 22.4753 107.174 22.4963 106.712 22.5173C106.249 22.5173 105.882 22.5279 105.609 22.5489V20.4692H113.581V22.2023C113.139 22.2233 112.782 22.3073 112.509 22.4543C112.236 22.5804 112.016 22.7799 111.848 23.053C111.68 23.3051 111.564 23.6202 111.501 23.9983C111.438 24.3764 111.406 24.807 111.406 25.2902V30.2372H110.619C110.115 30.2372 109.558 30.3212 108.949 30.4893C108.34 30.6363 107.678 30.8254 106.964 31.0564C106.312 31.2665 105.588 31.4451 104.789 31.5921C103.991 31.7602 103.161 31.8442 102.3 31.8442Z" fill="#FED702"/>
<path d="M123.218 31.8442C121.727 31.8442 120.372 31.5186 119.153 30.8674C117.935 30.1952 116.969 29.2604 116.254 28.063C115.561 26.8447 115.215 25.4267 115.215 23.8092C115.215 22.1077 115.572 20.5953 116.286 19.2719C117 17.9485 117.956 16.9191 119.153 16.1839C120.372 15.4487 121.706 15.0811 123.155 15.0811C124.647 15.0811 125.991 15.4172 127.188 16.0894C128.386 16.7616 129.331 17.6964 130.024 18.8937C130.738 20.0911 131.095 21.509 131.095 23.1475C131.095 24.8701 130.749 26.393 130.056 27.7164C129.383 29.0188 128.449 30.0376 127.251 30.7729C126.075 31.4871 124.731 31.8442 123.218 31.8442ZM123.376 29.9221C124.321 29.9221 125.046 29.628 125.55 29.0398C126.054 28.4517 126.401 27.7059 126.59 26.8027C126.8 25.8784 126.905 24.9331 126.905 23.9668C126.905 23.1475 126.831 22.3178 126.684 21.4775C126.558 20.6373 126.348 19.881 126.054 19.2088C125.76 18.5156 125.371 17.9695 124.888 17.5703C124.405 17.1502 123.817 16.9402 123.124 16.9402C122.199 16.9612 121.464 17.2657 120.918 17.8539C120.372 18.4421 119.973 19.1878 119.721 20.0911C119.489 20.9944 119.374 21.9502 119.374 22.9585C119.374 24.0928 119.51 25.2062 119.784 26.2985C120.057 27.3698 120.487 28.2521 121.075 28.9453C121.664 29.6175 122.43 29.9431 123.376 29.9221Z" fill="#FED702"/>
<path d="M141.25 31.8442C139.758 31.8442 138.404 31.5186 137.185 30.8674C135.967 30.1952 135.001 29.2604 134.286 28.063C133.593 26.8447 133.247 25.4267 133.247 23.8092C133.247 22.1077 133.604 20.5953 134.318 19.2719C135.032 17.9485 135.988 16.9191 137.185 16.1839C138.404 15.4487 139.737 15.0811 141.187 15.0811C142.678 15.0811 144.023 15.4172 145.22 16.0894C146.418 16.7616 147.363 17.6964 148.056 18.8937C148.77 20.0911 149.127 21.509 149.127 23.1475C149.127 24.8701 148.781 26.393 148.088 27.7164C147.415 29.0188 146.481 30.0376 145.283 30.7729C144.107 31.4871 142.762 31.8442 141.25 31.8442ZM141.407 29.9221C142.353 29.9221 143.077 29.628 143.582 29.0398C144.086 28.4517 144.432 27.7059 144.621 26.8027C144.832 25.8784 144.937 24.9331 144.937 23.9668C144.937 23.1475 144.863 22.3178 144.716 21.4775C144.59 20.6373 144.38 19.881 144.086 19.2088C143.792 18.5156 143.403 17.9695 142.92 17.5703C142.437 17.1502 141.849 16.9402 141.155 16.9402C140.231 16.9612 139.496 17.2657 138.95 17.8539C138.404 18.4421 138.004 19.1878 137.752 20.0911C137.521 20.9944 137.406 21.9502 137.406 22.9585C137.406 24.0928 137.542 25.2062 137.815 26.2985C138.088 27.3698 138.519 28.2521 139.107 28.9453C139.695 29.6175 140.462 29.9431 141.407 29.9221Z" fill="#FED702"/>
<path d="M157.832 31.8442C156.572 31.8442 155.448 31.5186 154.461 30.8674C153.474 30.2162 152.696 29.2919 152.129 28.0945C151.583 26.8972 151.31 25.4898 151.31 23.8723C151.31 22.1707 151.646 20.6583 152.318 19.3349C152.99 18.0115 153.915 16.9717 155.091 16.2154C156.288 15.4592 157.664 15.0811 159.219 15.0811C159.828 15.0811 160.395 15.1546 160.92 15.3017C161.466 15.4277 161.939 15.5747 162.338 15.7428V12.9384C162.338 12.6233 162.338 12.2347 162.338 11.7726C162.359 11.3104 162.391 10.8483 162.433 10.3862C162.097 10.4072 161.708 10.4282 161.267 10.4492C160.847 10.4702 160.49 10.4912 160.196 10.5122V8.46407C161.162 8.46407 161.95 8.42206 162.559 8.33803C163.168 8.233 163.641 8.10696 163.977 7.95992C164.334 7.81287 164.586 7.67633 164.733 7.55029H166.182V26.8342C166.182 27.1493 166.172 27.5484 166.151 28.0315C166.13 28.4937 166.098 28.9558 166.056 29.4179C166.413 29.3759 166.781 29.3549 167.159 29.3549C167.558 29.3339 167.894 29.3129 168.167 29.2919V31.34H162.685C162.643 31.088 162.601 30.8359 162.559 30.5838C162.538 30.3107 162.506 30.0586 162.464 29.8276C161.813 30.5208 161.099 31.0249 160.322 31.34C159.544 31.6761 158.715 31.8442 157.832 31.8442ZM159.313 29.4179C159.901 29.4179 160.469 29.2604 161.015 28.9453C161.561 28.6092 162.002 28.1996 162.338 27.7164C162.317 27.4223 162.307 27.1282 162.307 26.8342C162.307 26.5191 162.307 26.204 162.307 25.8889L162.338 17.8224C162.023 17.5703 161.624 17.3813 161.141 17.2552C160.658 17.1082 160.164 17.0347 159.66 17.0347C158.673 17.0557 157.864 17.3708 157.234 17.98C156.624 18.5681 156.173 19.3454 155.879 20.3117C155.606 21.278 155.48 22.3283 155.501 23.4626C155.501 24.4919 155.637 25.4582 155.91 26.3615C156.183 27.2648 156.593 28 157.139 28.5672C157.706 29.1344 158.431 29.4179 159.313 29.4179Z" fill="#FED702"/>
<path d="M177.327 31.8442C176.36 31.8442 175.457 31.7181 174.617 31.4661C173.777 31.214 173.104 30.9094 172.6 30.5523L172.695 31.5606H170.647L170.489 26.141H172.191C172.254 26.8552 172.506 27.5064 172.947 28.0945C173.388 28.6617 173.955 29.1134 174.648 29.4495C175.363 29.7646 176.15 29.9221 177.012 29.9221C177.432 29.9221 177.831 29.8591 178.209 29.733C178.608 29.607 178.934 29.4074 179.186 29.1344C179.459 28.8403 179.595 28.4727 179.595 28.0315C179.595 27.5694 179.438 27.1913 179.123 26.8972C178.829 26.6031 178.408 26.33 177.862 26.0779C177.316 25.8259 176.675 25.5633 175.94 25.2902C175.289 25.0381 174.638 24.7755 173.987 24.5025C173.335 24.2294 172.737 23.9038 172.191 23.5257C171.644 23.1265 171.203 22.6434 170.867 22.0762C170.531 21.509 170.363 20.8158 170.363 19.9966C170.363 19.4294 170.468 18.8622 170.678 18.2951C170.888 17.7279 171.224 17.2027 171.686 16.7196C172.149 16.2154 172.737 15.8163 173.451 15.5222C174.186 15.2281 175.079 15.0811 176.129 15.0811C176.696 15.0811 177.337 15.1756 178.051 15.3647C178.766 15.5327 179.396 15.8268 179.942 16.2469L179.91 15.2386H181.959V20.7843H180.257C180.152 20.0491 179.921 19.3979 179.564 18.8307C179.207 18.2425 178.734 17.7804 178.146 17.4443C177.558 17.1082 176.854 16.9402 176.035 16.9402C175.363 16.9402 174.795 17.1082 174.333 17.4443C173.871 17.7594 173.64 18.232 173.64 18.8622C173.64 19.3874 173.819 19.818 174.176 20.1541C174.533 20.4902 175.016 20.7738 175.625 21.0049C176.234 21.236 176.896 21.488 177.61 21.7611C178.598 22.0972 179.49 22.4963 180.289 22.9585C181.108 23.4206 181.759 23.9773 182.242 24.6285C182.725 25.2797 182.967 26.0884 182.967 27.0547C182.967 28.1471 182.694 29.0503 182.148 29.7646C181.601 30.4578 180.898 30.9829 180.036 31.34C179.175 31.6761 178.272 31.8442 177.327 31.8442Z" fill="#FED702"/>
<path d="M205.346 26.7396C205.346 27.2648 205.336 27.7689 205.315 28.2521C205.294 28.7142 205.262 29.0923 205.22 29.3864C205.598 29.3444 206.018 29.3234 206.48 29.3234C206.964 29.3024 207.342 29.2919 207.615 29.2919V31.34H198.981V29.607H199.17C199.737 29.586 200.189 29.4915 200.525 29.3234C200.882 29.1344 201.145 28.8193 201.313 28.3781C201.502 27.916 201.596 27.2753 201.596 26.456V25.5108H192.711V23.0215L203.708 8.77917H205.346V22.99H208.466V25.5108H205.346V26.7396ZM201.565 14.6715L195.358 22.864L201.596 22.927L201.628 14.6715H201.565Z" fill="#FED702"/>
<path d="M99.5903 50.0884C99.0441 50.1094 98.603 50.2039 98.2669 50.372C97.9518 50.54 97.7207 50.8131 97.5737 51.1912C97.4476 51.5483 97.3846 52.063 97.3846 52.7352V61.1797C97.3846 62.4401 97.5002 63.543 97.7312 64.4882C97.9833 65.4125 98.3404 66.1898 98.8025 66.82C99.2647 67.4501 99.8319 67.9228 100.504 68.2379C101.197 68.553 101.996 68.7105 102.899 68.7105C104.159 68.7525 105.22 68.49 106.081 67.9228C106.964 67.3556 107.625 66.5259 108.066 65.4335C108.508 64.3412 108.728 63.0073 108.728 61.4318L108.76 52.9873C108.76 52.4621 108.77 51.9579 108.791 51.4748C108.812 50.9916 108.844 50.6135 108.886 50.3404C108.529 50.3615 108.119 50.3825 107.657 50.4035C107.195 50.4035 106.827 50.414 106.554 50.435V48.3553H113.36V50.0884C112.793 50.1094 112.341 50.2144 112.005 50.4035C111.69 50.5715 111.469 50.8761 111.343 51.3172C111.217 51.7584 111.154 52.3886 111.154 53.2078L111.123 60.8962C111.123 62.5557 110.923 64.0156 110.524 65.276C110.146 66.5154 109.579 67.5552 108.823 68.3954C108.066 69.2357 107.153 69.8659 106.081 70.286C105.01 70.7061 103.792 70.9162 102.426 70.9162C100.683 70.9162 99.2227 70.6746 98.0463 70.1915C96.891 69.7083 95.9667 69.0151 95.2735 68.1119C94.6013 67.1876 94.1181 66.1057 93.824 64.8664C93.551 63.606 93.4144 62.1986 93.4144 60.6441V53.4284C93.4144 52.8822 93.4249 52.315 93.4459 51.7269C93.4879 51.1177 93.5194 50.6555 93.5404 50.3404C93.1833 50.3615 92.7737 50.3825 92.3116 50.4035C91.8494 50.4035 91.4818 50.414 91.2087 50.435V48.3553H99.5903V50.0884Z" fill="#FED702"/>
<path d="M115.056 70.4121V68.742C115.666 68.742 116.096 68.616 116.348 68.3639C116.621 68.0908 116.789 67.7127 116.852 67.2296C116.915 66.7464 116.947 66.2003 116.947 65.5911V51.9789C116.947 51.6218 116.957 51.2332 116.978 50.8131C116.999 50.372 117.031 49.9203 117.073 49.4582C116.716 49.4792 116.327 49.5002 115.907 49.5212C115.487 49.5422 115.13 49.5632 114.836 49.5842V47.5361C115.802 47.5361 116.59 47.4941 117.199 47.4101C117.808 47.305 118.281 47.179 118.617 47.0319C118.974 46.8849 119.226 46.7484 119.373 46.6223H120.823V61.1797H122.241L125.045 58.0918C125.339 57.7767 125.591 57.5036 125.801 57.2726C126.032 57.0205 126.263 56.8104 126.494 56.6424L124.667 56.6739V54.6573H131.284V56.3273C130.57 56.3903 129.918 56.5793 129.33 56.8944C128.742 57.1885 128.227 57.5351 127.786 57.9343C127.345 58.3334 126.956 58.7115 126.62 59.0686L124.478 61.4633C124.814 61.6104 125.129 61.8309 125.423 62.125C125.738 62.4191 126.095 62.8182 126.494 63.3224L128.637 66.1267C128.763 66.2738 128.931 66.4944 129.141 66.7884C129.372 67.0615 129.624 67.3556 129.897 67.6707C130.191 67.9648 130.507 68.2169 130.843 68.4269C131.179 68.637 131.515 68.742 131.851 68.742V70.4121H128.479C127.828 70.4121 127.24 70.16 126.715 69.6558C126.211 69.1307 125.644 68.448 125.013 67.6077C124.593 67.0195 124.173 66.4313 123.753 65.8432C123.333 65.234 122.944 64.6878 122.587 64.2047C122.251 63.7005 121.967 63.3119 121.736 63.0388L120.823 63.0703V65.9062C120.823 66.2423 120.812 66.6519 120.791 67.1351C120.77 67.5972 120.739 68.0488 120.697 68.49C121.033 68.448 121.39 68.4269 121.768 68.4269C122.146 68.4059 122.472 68.3954 122.745 68.3954V70.4121H115.056Z" fill="#FED702"/>
<path d="M133.622 68.742C134.231 68.742 134.661 68.616 134.914 68.3639C135.166 68.0908 135.323 67.7127 135.386 67.2296C135.449 66.7464 135.481 66.2003 135.481 65.5911V59.6673C135.481 59.2892 135.491 58.89 135.512 58.4699C135.533 58.0498 135.565 57.6192 135.607 57.178C135.25 57.199 134.861 57.22 134.441 57.241C134.021 57.241 133.674 57.2515 133.401 57.2726V55.2559H134.567C135.407 55.2559 136.111 55.1614 136.678 54.9724C137.245 54.7623 137.644 54.5522 137.875 54.3422H139.199C139.241 54.5942 139.272 54.9934 139.293 55.5395C139.314 56.0857 139.325 56.6319 139.325 57.178C139.808 56.5478 140.312 56.0122 140.837 55.571C141.362 55.1089 141.898 54.7623 142.444 54.5312C143.011 54.2791 143.589 54.1531 144.177 54.1531C144.85 54.1531 145.438 54.3422 145.942 54.7203C146.467 55.0984 146.73 55.7076 146.73 56.5478C146.73 56.8209 146.656 57.115 146.509 57.4301C146.383 57.7452 146.173 58.0078 145.879 58.2178C145.606 58.4279 145.228 58.5329 144.744 58.5329C144.303 58.5329 143.883 58.3964 143.484 58.1233C143.106 57.8292 142.906 57.3671 142.885 56.7369C142.444 56.7159 141.982 56.8734 141.499 57.2095C141.037 57.5456 140.617 57.9553 140.239 58.4384C139.861 58.9216 139.566 59.4152 139.356 59.9194L139.388 65.9062C139.388 66.2423 139.377 66.6519 139.356 67.1351C139.335 67.5972 139.304 68.0488 139.262 68.49C139.598 68.448 139.955 68.4269 140.333 68.4269C140.711 68.4059 141.026 68.3954 141.278 68.3954V70.4121H133.622V68.742Z" fill="#FED702"/>
<path d="M157.097 70.4121C157.033 70.097 156.991 69.8344 156.97 69.6243C156.97 69.3932 156.96 69.1307 156.939 68.8366C156.225 69.5508 155.458 70.0759 154.639 70.4121C153.841 70.7482 153.011 70.9162 152.149 70.9162C150.721 70.9162 149.618 70.5276 148.841 69.7503C148.085 68.9731 147.707 68.0173 147.707 66.883C147.707 65.8747 147.98 65.0239 148.526 64.3307C149.072 63.6165 149.786 63.0388 150.669 62.5977C151.551 62.1355 152.528 61.7889 153.599 61.5579C154.67 61.3058 155.731 61.1692 156.781 61.1482V59.4152C156.781 58.806 156.708 58.2494 156.561 57.7452C156.435 57.22 156.193 56.8104 155.836 56.5163C155.479 56.2012 154.954 56.0437 154.261 56.0437C153.798 56.0647 153.326 56.1697 152.843 56.3588C152.381 56.5268 152.013 56.7999 151.74 57.178C151.908 57.3671 152.013 57.5771 152.055 57.8082C152.097 58.0183 152.118 58.2073 152.118 58.3754C152.118 58.7535 151.971 59.1526 151.677 59.5728C151.383 59.9719 150.91 60.1609 150.259 60.1399C149.692 60.1189 149.251 59.9194 148.936 59.5412C148.641 59.1631 148.494 58.7115 148.494 58.1863C148.494 57.3881 148.778 56.6949 149.345 56.1067C149.933 55.4975 150.721 55.0249 151.708 54.6888C152.696 54.3317 153.798 54.1531 155.017 54.1531C156.823 54.1531 158.21 54.6257 159.176 55.571C160.142 56.5163 160.615 58.0288 160.594 60.1084C160.594 60.8436 160.594 61.5158 160.594 62.125C160.594 62.7132 160.584 63.3119 160.563 63.9211C160.563 64.5093 160.563 65.171 160.563 65.9062C160.563 66.2213 160.552 66.6204 160.531 67.1035C160.51 67.5657 160.479 68.0278 160.437 68.49C160.815 68.448 161.193 68.4269 161.571 68.4269C161.97 68.4059 162.296 68.3849 162.548 68.3639V70.4121H157.097ZM156.75 63.0073C156.12 63.0493 155.5 63.1543 154.891 63.3224C154.282 63.4694 153.735 63.6795 153.252 63.9526C152.769 64.2257 152.381 64.5723 152.086 64.9924C151.813 65.3915 151.687 65.8537 151.708 66.3788C151.729 67.03 151.939 67.5132 152.339 67.8283C152.738 68.1224 153.2 68.2694 153.725 68.2694C154.334 68.2694 154.88 68.1434 155.363 67.8913C155.868 67.6392 156.33 67.3031 156.75 66.883C156.75 66.6729 156.75 66.4523 156.75 66.2213C156.75 65.9902 156.75 65.7591 156.75 65.5281C156.75 65.234 156.75 64.8664 156.75 64.4252C156.75 63.9841 156.75 63.5115 156.75 63.0073Z" fill="#FED702"/>
<path d="M164.485 68.742C165.094 68.742 165.525 68.616 165.777 68.3639C166.029 68.0908 166.187 67.7127 166.25 67.2296C166.313 66.7464 166.344 66.2003 166.344 65.5911V59.6988C166.344 59.3417 166.355 58.9531 166.376 58.5329C166.397 58.0918 166.428 57.6402 166.47 57.178C166.113 57.199 165.724 57.22 165.304 57.241C164.884 57.2621 164.538 57.2831 164.264 57.3041V55.2559C165.21 55.2559 165.987 55.2139 166.596 55.1299C167.226 55.0249 167.709 54.8988 168.046 54.7518C168.403 54.6047 168.655 54.4682 168.802 54.3422H170.22V65.9062C170.22 66.2423 170.209 66.6519 170.188 67.1351C170.188 67.5972 170.157 68.0488 170.094 68.49C170.43 68.448 170.787 68.4269 171.165 68.4269C171.564 68.4059 171.89 68.3954 172.142 68.3954V70.4121H164.485V68.742ZM168.109 51.6323C167.499 51.6323 166.985 51.4118 166.565 50.9706C166.145 50.5085 165.934 49.9518 165.934 49.3006C165.934 48.6494 166.145 48.0928 166.565 47.6306C167.006 47.1685 167.52 46.9374 168.109 46.9374C168.718 46.9374 169.222 47.1685 169.621 47.6306C170.041 48.0928 170.251 48.6494 170.251 49.3006C170.251 49.9518 170.052 50.5085 169.653 50.9706C169.253 51.4118 168.739 51.6323 168.109 51.6323Z" fill="#FED702"/>
<path d="M174.301 70.4121V68.742C174.91 68.742 175.341 68.616 175.593 68.3639C175.845 68.0908 176.002 67.7127 176.066 67.2296C176.129 66.7464 176.16 66.2003 176.16 65.5911V59.6673C176.16 59.2892 176.171 58.89 176.192 58.4699C176.213 58.0498 176.244 57.6192 176.286 57.178C175.95 57.199 175.561 57.22 175.12 57.241C174.7 57.2621 174.353 57.2831 174.08 57.3041V55.2559C175.026 55.2559 175.803 55.2139 176.412 55.1299C177.021 55.0249 177.494 54.8988 177.83 54.7518C178.166 54.6047 178.408 54.4682 178.555 54.3422H179.878C179.92 54.5732 179.941 54.7623 179.941 54.9093C179.941 55.0564 179.952 55.2139 179.973 55.382C179.994 55.529 180.025 55.7496 180.067 56.0437C180.487 55.6866 180.971 55.3715 181.517 55.0984C182.084 54.8043 182.651 54.5732 183.218 54.4052C183.785 54.2371 184.311 54.1531 184.794 54.1531C186.684 54.1531 188.039 54.7098 188.858 55.8231C189.678 56.9365 190.087 58.7115 190.087 61.1482V65.9062C190.087 66.2423 190.077 66.6519 190.056 67.1351C190.056 67.5972 190.024 68.0488 189.961 68.49C190.318 68.448 190.686 68.4269 191.064 68.4269C191.442 68.4059 191.757 68.3954 192.009 68.3954V70.4121H184.353V68.742C184.962 68.742 185.392 68.616 185.644 68.3639C185.918 68.0908 186.086 67.7127 186.149 67.2296C186.212 66.7464 186.243 66.2003 186.243 65.5911L186.212 61.1167C186.212 59.6043 185.981 58.4804 185.518 57.7452C185.077 56.989 184.342 56.6109 183.313 56.6109C182.704 56.6319 182.105 56.7789 181.517 57.052C180.928 57.3251 180.435 57.6717 180.036 58.0918C180.057 58.3439 180.067 58.6065 180.067 58.8795C180.067 59.1526 180.067 59.4257 180.067 59.6988L180.036 65.9062C180.036 66.2423 180.025 66.6519 180.004 67.1351C180.004 67.5972 179.973 68.0488 179.91 68.49C180.246 68.448 180.603 68.4269 180.981 68.4269C181.38 68.4059 181.706 68.3954 181.958 68.3954V70.4121H174.301Z" fill="#FED702"/>
<path d="M201.556 70.9162C200.044 70.9162 198.699 70.5801 197.523 69.9079C196.346 69.2147 195.433 68.2484 194.781 67.009C194.13 65.7486 193.805 64.2677 193.805 62.5662C193.805 61.0957 194.13 59.7198 194.781 58.4384C195.433 57.157 196.346 56.1277 197.523 55.3505C198.72 54.5522 200.107 54.1531 201.682 54.1531C202.564 54.1531 203.415 54.2791 204.234 54.5312C205.054 54.7833 205.789 55.2034 206.44 55.7916C207.091 56.3798 207.606 57.157 207.984 58.1233C208.383 59.0896 208.572 60.266 208.551 61.6524L197.964 61.8414C197.964 63.1438 198.111 64.2992 198.405 65.3075C198.72 66.2948 199.224 67.0825 199.918 67.6707C200.611 68.2379 201.525 68.5215 202.659 68.5215C203.163 68.5215 203.699 68.4374 204.266 68.2694C204.854 68.0803 205.432 67.8073 205.999 67.4501C206.566 67.072 207.07 66.6099 207.511 66.0637L208.709 67.1666C208.015 68.1749 207.249 68.9521 206.409 69.4983C205.568 70.0444 204.728 70.4121 203.888 70.6011C203.047 70.8112 202.27 70.9162 201.556 70.9162ZM198.121 59.9509H204.675C204.654 59.1106 204.528 58.4069 204.297 57.8397C204.087 57.2515 203.772 56.8104 203.352 56.5163C202.932 56.2012 202.417 56.0437 201.808 56.0437C200.779 56.0437 199.949 56.3903 199.319 57.0835C198.71 57.7557 198.311 58.7115 198.121 59.9509Z" fill="#FED702"/>
</svg>
