<svg width="209" height="78" viewBox="0 0 209 78" fill="none" xmlns="http://www.w3.org/2000/svg">
<path d="M0 7.85499C0 3.5168 3.52704 0 7.87787 0H70.3494C74.7002 0 78.2273 3.5168 78.2273 7.85499V38.9607H0V7.85499Z" fill="#015ABC"/>
<path d="M0 38.9607H78.2273V70.0664C78.2273 74.4046 74.7002 77.9214 70.3494 77.9214H7.87787C3.52704 77.9214 0 74.4046 0 70.0664V38.9607Z" fill="#FED702"/>
<path fill-rule="evenodd" clip-rule="evenodd" d="M38.8773 66.6102C54.301 66.6102 66.8044 54.1432 66.8044 38.7643C66.8044 23.3854 54.301 10.9184 38.8773 10.9184C23.4536 10.9184 10.9502 23.3854 10.9502 38.7643C10.9502 54.1432 23.4536 66.6102 38.8773 66.6102ZM38.8773 69.1238C55.6933 69.1238 69.3253 55.5314 69.3253 38.7643C69.3253 21.9972 55.6933 8.40479 38.8773 8.40479C22.0613 8.40479 8.42932 21.9972 8.42932 38.7643C8.42932 55.5314 22.0613 69.1238 38.8773 69.1238Z" fill="#015ABC"/>
<path fill-rule="evenodd" clip-rule="evenodd" d="M69.3247 38.9607C69.3251 38.8953 69.3253 38.8298 69.3253 38.7643C69.3253 21.9972 55.6933 8.40479 38.8773 8.40479C22.0613 8.40479 8.42932 21.9972 8.42932 38.7643C8.42932 38.8298 8.42953 38.8953 8.42994 38.9607H10.9509C10.9505 38.8953 10.9502 38.8298 10.9502 38.7643C10.9502 23.3854 23.4536 10.9184 38.8773 10.9184C54.301 10.9184 66.8044 23.3854 66.8044 38.7643C66.8044 38.8298 66.8041 38.8953 66.8037 38.9607H69.3247Z" fill="#FED702"/>
<path d="M43.677 17.3292C42.7131 17.3268 41.7683 17.5981 40.9533 18.1114C40.1382 18.6246 39.4866 19.3586 39.0745 20.2275C38.5884 19.1742 37.7545 18.3191 36.712 17.8053C35.6696 17.2915 34.4818 17.15 33.3473 17.4045C32.2128 17.659 31.2003 18.2941 30.4791 19.2036C29.7578 20.1131 29.3716 21.2419 29.3849 22.4012C29.3849 27.7148 39.0745 34.7191 39.0745 34.7191C39.0745 34.7191 48.7641 27.7148 48.7641 22.4012C48.7641 21.056 48.2281 19.7659 47.2741 18.8147C46.3201 17.8636 45.0262 17.3292 43.677 17.3292Z" fill="#FED702"/>
<path fill-rule="evenodd" clip-rule="evenodd" d="M39.0735 20.4133L39.0029 20.2603C38.5244 19.2234 37.7034 18.3816 36.6771 17.8757C35.6509 17.3698 34.4815 17.2306 33.3646 17.4811C32.2477 17.7317 31.2509 18.3569 30.5409 19.2523C29.8308 20.1477 29.4506 21.259 29.4636 22.4003L29.4636 22.4012C29.4636 23.7074 30.0599 25.1261 30.9651 26.525C31.8693 27.9224 33.0763 29.2917 34.2854 30.4972C35.4942 31.7024 36.7033 32.7422 37.6103 33.4808C38.0638 33.85 38.4416 34.1439 38.706 34.3453C38.8381 34.446 38.9419 34.5237 39.0126 34.5761C39.0374 34.5944 39.058 34.6096 39.0745 34.6217C39.0909 34.6096 39.1116 34.5944 39.1363 34.5761C39.207 34.5237 39.3108 34.446 39.443 34.3453C39.7074 34.1439 40.0852 33.85 40.5386 33.4808C41.4457 32.7422 42.6548 31.7024 43.8636 30.4972C45.0727 29.2917 46.2797 27.9224 47.1839 26.525C48.089 25.1261 48.6853 23.7074 48.6853 22.4012C48.6853 21.0769 48.1577 19.8068 47.2184 18.8703C46.2792 17.9338 45.0053 17.4077 43.677 17.4077V17.3294L43.6768 17.4077C42.7278 17.4054 41.7977 17.6725 40.9953 18.1778C40.1929 18.6831 39.5514 19.4056 39.1457 20.2611L39.0735 20.4133ZM39.0745 34.7191C39.0745 34.7191 29.3849 27.7148 29.3849 22.4012C29.3716 21.2419 29.7578 20.1131 30.4791 19.2036C31.2003 18.2941 32.2128 17.659 33.3473 17.4045C34.4818 17.15 35.6696 17.2915 36.712 17.8053C37.7241 18.3042 38.5397 19.1247 39.0312 20.136C39.0459 20.1663 39.0603 20.1968 39.0745 20.2275C39.0889 20.197 39.1037 20.1667 39.1188 20.1365C39.5325 19.3073 40.1668 18.6066 40.9533 18.1114C41.7683 17.5981 42.7131 17.3268 43.677 17.3292C45.0262 17.3292 46.3201 17.8636 47.2741 18.8147C48.2281 19.7659 48.7641 21.056 48.7641 22.4012C48.7641 27.7148 39.0745 34.7191 39.0745 34.7191Z" fill="#FED702"/>
<path d="M55.7221 47.2407C55.4421 46.7906 54.8974 46.5618 54.1059 46.5618C52.0062 46.5618 48.2601 48.1607 48.1014 48.2284C47.8314 48.3446 47.6879 48.6435 47.7666 48.9266C47.9247 49.4981 47.7923 50.1006 47.3951 50.6225C46.8597 51.3259 45.3613 52.5063 41.3311 52.5063C41.3305 52.5063 41.3299 52.5063 41.3293 52.5063C41.1614 52.5063 40.9911 52.5046 40.8161 52.4999C39.9325 52.4789 39.2448 52.3166 38.2935 52.0924C37.645 51.9389 36.8798 51.7597 35.8562 51.5735C36.3776 51.3697 37.2303 51.1934 38.5723 51.1934C39.2681 51.1934 40.0567 51.2407 40.9158 51.333C41.3486 51.3797 41.7714 51.4036 42.1721 51.4036C45.0254 51.4036 46.5179 50.2045 46.5179 49.0212C46.5179 48.4929 46.2175 48.0089 45.6938 47.6949C45.0347 47.2996 44.0531 47.1683 42.8475 47.3195C42.4573 47.3685 42.038 47.3931 41.6017 47.3936C39.7773 47.3936 37.8217 46.9698 35.9302 46.56C34.1157 46.1665 32.4016 45.7947 30.8536 45.7947C30.4804 45.7947 30.1246 45.8174 29.7968 45.8618C27.1483 46.2173 25.6196 47.0008 23.8494 47.9074C21.6582 49.0305 18.9315 50.4275 12.8401 51.6651C12.6645 51.7013 12.5146 51.8152 12.433 51.9745C12.3513 52.1339 12.3467 52.3219 12.4207 52.4853C12.5444 52.7603 15.4944 59.2338 18.2993 60.7288C18.3862 60.7749 18.4812 60.7977 18.5763 60.7977C18.686 60.7977 18.7962 60.7662 18.8924 60.7049C18.9665 60.6582 26.6309 55.7772 30.9878 56.1368C33.3494 56.3283 34.7859 56.6716 35.9401 56.9477C36.4808 57.0773 36.948 57.1882 37.4058 57.2577L38.0124 57.3523C38.8885 57.4912 39.6455 57.6109 40.4586 57.6109C42.4789 57.6109 44.6142 56.8181 48.3376 54.6844C49.3869 54.0837 50.3195 53.5647 51.1413 53.1082C54.3865 51.3038 55.8679 50.4806 56.1893 49.236C56.394 48.4509 56.0213 47.7217 55.7221 47.2407Z" fill="#015ABC"/>
<path d="M50.6547 60.6807L56.2883 55.0633L61.922 60.6807L56.2883 66.298L50.6547 60.6807Z" fill="#FED702"/>
<path fill-rule="evenodd" clip-rule="evenodd" d="M69.3252 59.9335H58.8477V57.3413H69.3252V59.9335Z" fill="#015ABC"/>
<path fill-rule="evenodd" clip-rule="evenodd" d="M61.4474 49.4865L61.4474 59.9336L58.8477 59.9336L58.8477 49.4865L61.4474 49.4865Z" fill="#015ABC"/>
<path d="M27.0999 16.6929L21.4662 22.3102L15.8325 16.6929L21.4662 11.0756L27.0999 16.6929Z" fill="#015ABC"/>
<path fill-rule="evenodd" clip-rule="evenodd" d="M8.42929 17.4401L18.9069 17.4401L18.9069 20.0322L8.42929 20.0322L8.42929 17.4401Z" fill="#FED702"/>
<path fill-rule="evenodd" clip-rule="evenodd" d="M16.3072 27.8871L16.3072 17.4399L18.9069 17.4399L18.9069 27.8871L16.3072 27.8871Z" fill="#FED702"/>
<path d="M101.546 31.2944C99.319 31.2944 97.4073 30.8231 95.8107 29.8805C94.2141 28.9169 92.9852 27.5973 92.1239 25.9216C91.2626 24.2249 90.8319 22.3083 90.8319 20.1717C90.8319 18.7264 91.0525 17.302 91.4937 15.8986C91.9558 14.4742 92.6386 13.1965 93.5419 12.0654C94.4452 10.9133 95.5796 10.0021 96.9451 9.33182C98.3316 8.64058 99.9387 8.29496 101.766 8.29496C102.397 8.29496 103.079 8.3578 103.815 8.48348C104.55 8.60916 105.275 8.79768 105.989 9.04904C106.724 9.27945 107.375 9.56223 107.943 9.89738L107.817 8.5149H110.022V15.8043H108.289C108.121 14.5685 107.754 13.5421 107.186 12.7252C106.619 11.9083 105.894 11.2903 105.012 10.8714C104.151 10.4315 103.184 10.2116 102.113 10.2116C101.021 10.2116 100.033 10.4629 99.1509 10.9657C98.2896 11.4684 97.5544 12.1491 96.9451 13.008C96.3569 13.8668 95.9053 14.8513 95.5901 15.9614C95.275 17.0716 95.1175 18.2551 95.1175 19.5119C95.1175 21.3552 95.4011 23.01 95.9683 24.4762C96.5565 25.9216 97.3863 27.0631 98.4577 27.901C99.5291 28.7179 100.821 29.1264 102.334 29.1264C102.796 29.1264 103.31 29.095 103.878 29.0321C104.445 28.9483 105.012 28.8227 105.579 28.6551C106.146 28.4875 106.651 28.2885 107.092 28.0581V24.8219C107.092 24.2772 107.102 23.7431 107.123 23.2194C107.144 22.6958 107.165 22.2664 107.186 21.9312C106.829 21.9522 106.42 21.9731 105.957 21.9941C105.495 21.9941 105.128 22.0045 104.855 22.0255V19.9518H112.827V21.6799C112.386 21.7008 112.029 21.7846 111.756 21.9312C111.482 22.0569 111.262 22.2559 111.094 22.5282C110.926 22.7796 110.81 23.0938 110.747 23.4708C110.684 23.8478 110.653 24.2772 110.653 24.759V29.6919H109.865C109.361 29.6919 108.804 29.7757 108.195 29.9433C107.586 30.0899 106.924 30.2785 106.21 30.5089C105.558 30.7183 104.834 30.8964 104.035 31.043C103.237 31.2106 102.407 31.2944 101.546 31.2944Z" fill="#015ABC"/>
<path d="M122.465 31.2944C120.973 31.2944 119.618 30.9697 118.4 30.3203C117.182 29.6501 116.215 28.7179 115.501 27.524C114.808 26.3091 114.461 24.8952 114.461 23.2823C114.461 21.5856 114.818 20.0774 115.532 18.7578C116.247 17.4382 117.203 16.4118 118.4 15.6786C119.618 14.9455 120.952 14.5789 122.402 14.5789C123.894 14.5789 125.238 14.9141 126.435 15.5844C127.633 16.2547 128.578 17.1868 129.271 18.3808C129.986 19.5747 130.343 20.9886 130.343 22.6225C130.343 24.3401 129.996 25.8587 129.303 27.1784C128.631 28.477 127.696 29.493 126.498 30.2261C125.322 30.9383 123.978 31.2944 122.465 31.2944ZM122.623 29.3777C123.568 29.3777 124.293 29.0845 124.797 28.498C125.301 27.9115 125.648 27.1679 125.837 26.2672C126.047 25.3455 126.152 24.4029 126.152 23.4394C126.152 22.6225 126.078 21.7951 125.931 20.9572C125.805 20.1193 125.595 19.3653 125.301 18.695C125.007 18.0037 124.618 17.4591 124.135 17.0611C123.652 16.6422 123.064 16.4327 122.37 16.4327C121.446 16.4537 120.711 16.7574 120.165 17.3439C119.618 17.9304 119.219 18.674 118.967 19.5747C118.736 20.4754 118.621 21.4285 118.621 22.4339C118.621 23.5651 118.757 24.6752 119.03 25.7645C119.303 26.8327 119.734 27.7125 120.322 28.4037C120.91 29.074 121.677 29.3987 122.623 29.3777Z" fill="#015ABC"/>
<path d="M140.498 31.2944C139.006 31.2944 137.651 30.9697 136.433 30.3203C135.215 29.6501 134.248 28.7179 133.534 27.524C132.841 26.3091 132.494 24.8952 132.494 23.2823C132.494 21.5856 132.851 20.0774 133.565 18.7578C134.28 17.4382 135.236 16.4118 136.433 15.6786C137.651 14.9455 138.985 14.5789 140.435 14.5789C141.926 14.5789 143.271 14.9141 144.468 15.5844C145.666 16.2547 146.611 17.1868 147.304 18.3808C148.019 19.5747 148.376 20.9886 148.376 22.6225C148.376 24.3401 148.029 25.8587 147.336 27.1784C146.664 28.477 145.729 29.493 144.531 30.2261C143.355 30.9383 142.011 31.2944 140.498 31.2944ZM140.656 29.3777C141.601 29.3777 142.326 29.0845 142.83 28.498C143.334 27.9115 143.681 27.1679 143.87 26.2672C144.08 25.3455 144.185 24.4029 144.185 23.4394C144.185 22.6225 144.111 21.7951 143.964 20.9572C143.838 20.1193 143.628 19.3653 143.334 18.695C143.04 18.0037 142.651 17.4591 142.168 17.0611C141.685 16.6422 141.097 16.4327 140.403 16.4327C139.479 16.4537 138.744 16.7574 138.198 17.3439C137.651 17.9304 137.252 18.674 137 19.5747C136.769 20.4754 136.654 21.4285 136.654 22.4339C136.654 23.5651 136.79 24.6752 137.063 25.7645C137.336 26.8327 137.767 27.7125 138.355 28.4037C138.943 29.074 139.71 29.3987 140.656 29.3777Z" fill="#015ABC"/>
<path d="M157.081 31.2944C155.821 31.2944 154.697 30.9697 153.71 30.3203C152.722 29.671 151.945 28.7493 151.378 27.5554C150.832 26.3614 150.558 24.958 150.558 23.3451C150.558 21.6484 150.895 20.1403 151.567 18.8206C152.239 17.501 153.163 16.4641 154.34 15.7101C155.537 14.956 156.913 14.5789 158.468 14.5789C159.077 14.5789 159.644 14.6523 160.17 14.7989C160.716 14.9246 161.188 15.0712 161.588 15.2388V12.4424C161.588 12.1282 161.588 11.7407 161.588 11.2799C161.609 10.819 161.64 10.3582 161.682 9.89738C161.346 9.91832 160.957 9.93927 160.516 9.96022C160.096 9.98116 159.739 10.0021 159.445 10.0231V7.98076C160.411 7.98076 161.199 7.93887 161.808 7.85508C162.417 7.75035 162.89 7.62467 163.226 7.47804C163.583 7.33141 163.835 7.19526 163.982 7.06958H165.432V26.2986C165.432 26.6128 165.421 27.0108 165.4 27.4925C165.379 27.9534 165.348 28.4142 165.306 28.875C165.663 28.8331 166.031 28.8122 166.409 28.8122C166.808 28.7912 167.144 28.7703 167.417 28.7493V30.7916H161.934C161.892 30.5403 161.85 30.2889 161.808 30.0376C161.787 29.7653 161.756 29.5139 161.714 29.2835C161.062 29.9747 160.348 30.4774 159.571 30.7916C158.794 31.1268 157.964 31.2944 157.081 31.2944ZM158.562 28.875C159.151 28.875 159.718 28.7179 160.264 28.4037C160.81 28.0686 161.251 27.6601 161.588 27.1784C161.567 26.8851 161.556 26.5918 161.556 26.2986C161.556 25.9844 161.556 25.6702 161.556 25.356L161.588 17.3125C161.272 17.0611 160.873 16.8726 160.39 16.7469C159.907 16.6003 159.413 16.527 158.909 16.527C157.922 16.5479 157.113 16.8621 156.483 17.4696C155.873 18.0561 155.422 18.8311 155.128 19.7947C154.855 20.7582 154.729 21.8055 154.75 22.9367C154.75 23.963 154.886 24.9266 155.159 25.8273C155.432 26.728 155.842 27.4611 156.388 28.0267C156.955 28.5922 157.68 28.875 158.562 28.875Z" fill="#015ABC"/>
<path d="M176.577 31.2944C175.611 31.2944 174.707 31.1687 173.867 30.9173C173.027 30.666 172.354 30.3622 171.85 30.0061L171.945 31.0116H169.896L169.739 25.6074H171.441C171.504 26.3195 171.756 26.9689 172.197 27.5554C172.638 28.1209 173.205 28.5713 173.898 28.9064C174.613 29.2206 175.4 29.3777 176.262 29.3777C176.682 29.3777 177.081 29.3149 177.459 29.1892C177.858 29.0635 178.184 28.8646 178.436 28.5922C178.709 28.299 178.846 27.9324 178.846 27.4925C178.846 27.0317 178.688 26.6547 178.373 26.3614C178.079 26.0682 177.659 25.7959 177.113 25.5445C176.566 25.2932 175.926 25.0313 175.19 24.759C174.539 24.5077 173.888 24.2458 173.237 23.9735C172.585 23.7012 171.987 23.3765 171.441 22.9995C170.894 22.6015 170.453 22.1197 170.117 21.5542C169.781 20.9886 169.613 20.2974 169.613 19.4805C169.613 18.9149 169.718 18.3493 169.928 17.7838C170.138 17.2182 170.474 16.6946 170.936 16.2128C171.399 15.7101 171.987 15.3121 172.701 15.0188C173.436 14.7256 174.329 14.5789 175.379 14.5789C175.947 14.5789 176.587 14.6732 177.302 14.8617C178.016 15.0293 178.646 15.3226 179.192 15.7415L179.161 14.736H181.209V20.266H179.507C179.402 19.5328 179.171 18.8835 178.814 18.3179C178.457 17.7314 177.984 17.2706 177.396 16.9354C176.808 16.6003 176.104 16.4327 175.285 16.4327C174.613 16.4327 174.045 16.6003 173.583 16.9354C173.121 17.2496 172.89 17.7209 172.89 18.3493C172.89 18.873 173.069 19.3024 173.426 19.6376C173.783 19.9727 174.266 20.2555 174.875 20.4859C175.484 20.7163 176.146 20.9677 176.86 21.24C177.848 21.5751 178.741 21.9731 179.539 22.4339C180.358 22.8948 181.01 23.4498 181.493 24.0992C181.976 24.7485 182.217 25.555 182.217 26.5185C182.217 27.6078 181.944 28.5085 181.398 29.2206C180.852 29.9119 180.148 30.4356 179.287 30.7916C178.426 31.1268 177.522 31.2944 176.577 31.2944Z" fill="#015ABC"/>
<path d="M204.598 26.2043C204.598 26.728 204.587 27.2307 204.566 27.7125C204.545 28.1733 204.514 28.5504 204.472 28.8436C204.85 28.8017 205.27 28.7808 205.732 28.7808C206.216 28.7598 206.594 28.7493 206.867 28.7493V30.7916H198.233V29.0635H198.422C198.989 29.0426 199.441 28.9483 199.777 28.7808C200.134 28.5922 200.396 28.278 200.565 27.8382C200.754 27.3773 200.848 26.7385 200.848 25.9216V24.979H191.962V22.4968L202.959 8.29496H204.598V22.4654H207.718V24.979H204.598V26.2043ZM200.817 14.1705L194.609 22.3397L200.848 22.4025L200.88 14.1705H200.817Z" fill="#015ABC"/>
<path d="M98.8358 49.4865C98.2896 49.5074 97.8484 49.6017 97.5123 49.7692C97.1972 49.9368 96.9661 50.2091 96.8191 50.5862C96.693 50.9423 96.63 51.4555 96.63 52.1257V60.5463C96.63 61.8031 96.7455 62.9028 96.9766 63.8454C97.2287 64.767 97.5858 65.5421 98.048 66.1705C98.5102 66.7989 99.0774 67.2702 99.7496 67.5844C100.443 67.8986 101.241 68.0557 102.145 68.0557C103.405 68.0975 104.466 67.8357 105.327 67.2702C106.209 66.7046 106.871 65.8772 107.312 64.788C107.754 63.6988 107.974 62.3686 107.974 60.7976L108.006 52.3771C108.006 51.8534 108.016 51.3507 108.037 50.8689C108.058 50.3872 108.09 50.0101 108.132 49.7378C107.775 49.7588 107.365 49.7797 106.903 49.8007C106.441 49.8007 106.073 49.8111 105.8 49.8321V47.7584H112.606V49.4865C112.039 49.5074 111.587 49.6121 111.251 49.8007C110.936 49.9682 110.716 50.272 110.59 50.7118C110.464 51.1517 110.401 51.7801 110.401 52.597L110.369 60.2635C110.369 61.9183 110.169 63.3741 109.77 64.6309C109.392 65.8667 108.825 66.9036 108.069 67.7415C107.312 68.5793 106.399 69.2077 105.327 69.6267C104.256 70.0456 103.037 70.2551 101.672 70.2551C99.9282 70.2551 98.4682 70.0142 97.2917 69.5324C96.1363 69.0506 95.212 68.3594 94.5187 67.4587C93.8465 66.537 93.3633 65.4583 93.0692 64.2224C92.7961 62.9656 92.6595 61.5622 92.6595 60.0121V52.817C92.6595 52.2724 92.67 51.7068 92.6911 51.1203C92.7331 50.5129 92.7646 50.052 92.7856 49.7378C92.4285 49.7588 92.0188 49.7797 91.5566 49.8007C91.0945 49.8007 90.7268 49.8111 90.4537 49.8321V47.7584H98.8358V49.4865Z" fill="#015ABC"/>
<path d="M114.303 69.7523V68.0871C114.912 68.0871 115.343 67.9614 115.595 67.71C115.868 67.4377 116.036 67.0607 116.099 66.5789C116.162 66.0971 116.193 65.5525 116.193 64.9451V51.3717C116.193 51.0156 116.204 50.6281 116.225 50.2091C116.246 49.7692 116.277 49.3189 116.32 48.8581C115.962 48.879 115.574 48.9 115.154 48.9209C114.733 48.9419 114.376 48.9628 114.082 48.9837V46.9415C115.049 46.9415 115.836 46.8996 116.446 46.8158C117.055 46.711 117.527 46.5854 117.864 46.4387C118.221 46.2921 118.473 46.156 118.62 46.0303H120.069V60.5463H121.487L124.292 57.4671C124.586 57.1529 124.838 56.8806 125.048 56.6502C125.279 56.3989 125.51 56.1894 125.741 56.0218L123.914 56.0532V54.0424H130.531V55.7076C129.817 55.7705 129.166 55.959 128.577 56.2732C127.989 56.5664 127.475 56.912 127.033 57.31C126.592 57.708 126.204 58.0851 125.867 58.4412L123.725 60.8291C124.061 60.9757 124.376 61.1956 124.67 61.4889C124.985 61.7821 125.342 62.1801 125.741 62.6828L127.884 65.4792C128.01 65.6258 128.178 65.8458 128.388 66.139C128.619 66.4113 128.872 66.7046 129.145 67.0188C129.439 67.312 129.754 67.5634 130.09 67.7729C130.426 67.9823 130.762 68.0871 131.098 68.0871V69.7523H127.727C127.075 69.7523 126.487 69.501 125.962 68.9983C125.458 68.4746 124.891 67.7938 124.26 66.956C123.84 66.3695 123.42 65.7829 123 65.1964C122.58 64.589 122.191 64.0444 121.834 63.5626C121.498 63.0599 121.214 62.6724 120.983 62.4001L120.069 62.4315V65.2593C120.069 65.5944 120.059 66.0029 120.038 66.4847C120.017 66.9455 119.985 67.3958 119.943 67.8357C120.279 67.7938 120.637 67.7729 121.015 67.7729C121.393 67.7519 121.718 67.7415 121.992 67.7415V69.7523H114.303Z" fill="#015ABC"/>
<path d="M132.869 68.0871C133.478 68.0871 133.909 67.9614 134.161 67.71C134.413 67.4377 134.571 67.0607 134.634 66.5789C134.697 66.0971 134.728 65.5525 134.728 64.9451V59.0381C134.728 58.6611 134.739 58.2631 134.76 57.8442C134.781 57.4252 134.812 56.9958 134.854 56.556C134.497 56.5769 134.109 56.5978 133.688 56.6188C133.268 56.6188 132.922 56.6293 132.649 56.6502V54.6393H133.815C134.655 54.6393 135.359 54.5451 135.926 54.3566C136.493 54.1471 136.892 53.9376 137.123 53.7282H138.447C138.489 53.9795 138.52 54.3775 138.541 54.9221C138.562 55.4667 138.573 56.0113 138.573 56.556C139.056 55.9276 139.56 55.3934 140.085 54.9535C140.611 54.4927 141.146 54.1471 141.692 53.9167C142.26 53.6653 142.837 53.5396 143.426 53.5396C144.098 53.5396 144.686 53.7282 145.19 54.1052C145.715 54.4822 145.978 55.0897 145.978 55.9276C145.978 56.1999 145.904 56.4931 145.757 56.8073C145.631 57.1215 145.421 57.3833 145.127 57.5928C144.854 57.8023 144.476 57.907 143.993 57.907C143.552 57.907 143.131 57.7709 142.732 57.4986C142.354 57.2053 142.155 56.7445 142.134 56.1161C141.692 56.0951 141.23 56.2522 140.747 56.5874C140.285 56.9225 139.865 57.331 139.487 57.8128C139.108 58.2945 138.814 58.7868 138.604 59.2895L138.636 65.2593C138.636 65.5944 138.625 66.0029 138.604 66.4847C138.583 66.9455 138.552 67.3958 138.51 67.8357C138.846 67.7938 139.203 67.7729 139.581 67.7729C139.959 67.7519 140.274 67.7415 140.526 67.7415V69.7523H132.869V68.0871Z" fill="#015ABC"/>
<path d="M156.346 69.7523C156.282 69.4381 156.24 69.1763 156.219 68.9668C156.219 68.7364 156.209 68.4746 156.188 68.1813C155.474 68.8935 154.707 69.4172 153.888 69.7523C153.089 70.0875 152.26 70.2551 151.398 70.2551C149.97 70.2551 148.867 69.8675 148.089 69.0925C147.333 68.3175 146.955 67.3644 146.955 66.2333C146.955 65.2279 147.228 64.3795 147.774 63.6883C148.321 62.9761 149.035 62.4001 149.917 61.9602C150.799 61.4994 151.776 61.1537 152.848 60.9233C153.919 60.672 154.98 60.5358 156.03 60.5149V58.7868C156.03 58.1793 155.957 57.6242 155.81 57.1215C155.684 56.5978 155.442 56.1894 155.085 55.8961C154.728 55.5819 154.203 55.4248 153.509 55.4248C153.047 55.4458 152.575 55.5505 152.091 55.739C151.629 55.9066 151.262 56.1789 150.989 56.556C151.157 56.7445 151.262 56.9539 151.304 57.1844C151.346 57.3938 151.367 57.5823 151.367 57.7499C151.367 58.127 151.22 58.5249 150.926 58.9439C150.631 59.3419 150.159 59.5304 149.508 59.5094C148.94 59.4885 148.499 59.2895 148.184 58.9125C147.89 58.5354 147.743 58.0851 147.743 57.5614C147.743 56.7654 148.026 56.0742 148.594 55.4877C149.182 54.8802 149.97 54.4089 150.957 54.0738C151.944 53.7177 153.047 53.5396 154.266 53.5396C156.072 53.5396 157.459 54.0109 158.425 54.9535C159.392 55.8961 159.864 57.4043 159.843 59.478C159.843 60.2111 159.843 60.8814 159.843 61.4889C159.843 62.0754 159.833 62.6724 159.812 63.2798C159.812 63.8663 159.812 64.5261 159.812 65.2593C159.812 65.5735 159.801 65.9715 159.78 66.4532C159.759 66.9141 159.728 67.3749 159.686 67.8357C160.064 67.7938 160.442 67.7729 160.82 67.7729C161.219 67.7519 161.545 67.731 161.797 67.71V69.7523H156.346ZM155.999 62.3686C155.369 62.4105 154.749 62.5153 154.14 62.6828C153.53 62.8295 152.984 63.0389 152.501 63.3112C152.018 63.5835 151.629 63.9292 151.335 64.3481C151.062 64.7461 150.936 65.2069 150.957 65.7306C150.978 66.3799 151.188 66.8617 151.587 67.1759C151.986 67.4692 152.449 67.6158 152.974 67.6158C153.583 67.6158 154.129 67.4901 154.612 67.2387C155.117 66.9874 155.579 66.6522 155.999 66.2333C155.999 66.0238 155.999 65.8039 155.999 65.5735C155.999 65.3431 155.999 65.1127 155.999 64.8822C155.999 64.589 155.999 64.2224 155.999 63.7825C155.999 63.3427 155.999 62.8714 155.999 62.3686Z" fill="#015ABC"/>
<path d="M163.734 68.0871C164.344 68.0871 164.774 67.9614 165.026 67.71C165.279 67.4377 165.436 67.0607 165.499 66.5789C165.562 66.0971 165.594 65.5525 165.594 64.9451V59.0696C165.594 58.7135 165.604 58.3259 165.625 57.907C165.646 57.4671 165.678 57.0168 165.72 56.556C165.363 56.5769 164.974 56.5978 164.554 56.6188C164.134 56.6397 163.787 56.6607 163.514 56.6816V54.6393C164.459 54.6393 165.237 54.5974 165.846 54.5137C166.476 54.4089 166.959 54.2832 167.295 54.1366C167.652 53.99 167.904 53.8538 168.052 53.7282H169.47V65.2593C169.47 65.5944 169.459 66.0029 169.438 66.4847C169.438 66.9455 169.407 67.3958 169.344 67.8357C169.68 67.7938 170.037 67.7729 170.415 67.7729C170.814 67.7519 171.14 67.7415 171.392 67.7415V69.7523H163.734V68.0871ZM167.358 51.026C166.749 51.026 166.234 50.8061 165.814 50.3662C165.394 49.9054 165.184 49.3503 165.184 48.701C165.184 48.0516 165.394 47.4965 165.814 47.0357C166.255 46.5749 166.77 46.3445 167.358 46.3445C167.968 46.3445 168.472 46.5749 168.871 47.0357C169.291 47.4965 169.501 48.0516 169.501 48.701C169.501 49.3503 169.301 49.9054 168.902 50.3662C168.503 50.8061 167.989 51.026 167.358 51.026Z" fill="#015ABC"/>
<path d="M173.551 69.7523V68.0871C174.16 68.0871 174.591 67.9614 174.843 67.71C175.095 67.4377 175.253 67.0607 175.316 66.5789C175.379 66.0971 175.41 65.5525 175.41 64.9451V59.0381C175.41 58.6611 175.421 58.2631 175.442 57.8442C175.463 57.4252 175.494 56.9958 175.536 56.556C175.2 56.5769 174.811 56.5978 174.37 56.6188C173.95 56.6397 173.604 56.6607 173.33 56.6816V54.6393C174.276 54.6393 175.053 54.5974 175.662 54.5137C176.272 54.4089 176.744 54.2832 177.08 54.1366C177.416 53.99 177.658 53.8538 177.805 53.7282H179.129C179.171 53.9586 179.192 54.1471 179.192 54.2937C179.192 54.4403 179.202 54.5974 179.223 54.765C179.244 54.9116 179.276 55.1316 179.318 55.4248C179.738 55.0687 180.221 54.7545 180.767 54.4822C181.334 54.189 181.902 53.9586 182.469 53.791C183.036 53.6234 183.561 53.5396 184.044 53.5396C185.935 53.5396 187.29 54.0947 188.109 55.2049C188.929 56.3151 189.338 58.0851 189.338 60.5149V65.2593C189.338 65.5944 189.328 66.0029 189.307 66.4847C189.307 66.9455 189.275 67.3958 189.212 67.8357C189.569 67.7938 189.937 67.7729 190.315 67.7729C190.693 67.7519 191.008 67.7415 191.26 67.7415V69.7523H183.603V68.0871C184.212 68.0871 184.643 67.9614 184.895 67.71C185.168 67.4377 185.336 67.0607 185.399 66.5789C185.462 66.0971 185.494 65.5525 185.494 64.9451L185.462 60.4834C185.462 58.9753 185.231 57.8546 184.769 57.1215C184.328 56.3674 183.593 55.9904 182.563 55.9904C181.954 56.0113 181.355 56.158 180.767 56.4303C180.179 56.7026 179.685 57.0482 179.286 57.4671C179.307 57.7185 179.318 57.9803 179.318 58.2526C179.318 58.5249 179.318 58.7972 179.318 59.0696L179.286 65.2593C179.286 65.5944 179.276 66.0029 179.255 66.4847C179.255 66.9455 179.223 67.3958 179.16 67.8357C179.496 67.7938 179.853 67.7729 180.231 67.7729C180.631 67.7519 180.956 67.7415 181.208 67.7415V69.7523H173.551Z" fill="#015ABC"/>
<path d="M200.808 70.2551C199.295 70.2551 197.951 69.9199 196.774 69.2496C195.598 68.5584 194.684 67.5948 194.033 66.359C193.382 65.1022 193.056 63.6254 193.056 61.9288C193.056 60.4625 193.382 59.0905 194.033 57.8128C194.684 56.535 195.598 55.5086 196.774 54.7336C197.972 53.9376 199.358 53.5396 200.934 53.5396C201.816 53.5396 202.667 53.6653 203.486 53.9167C204.306 54.168 205.041 54.587 205.692 55.1735C206.343 55.76 206.858 56.535 207.236 57.4986C207.635 58.4621 207.824 59.6351 207.803 61.0176L197.215 61.2061C197.215 62.5048 197.362 63.6569 197.657 64.6623C197.972 65.6468 198.476 66.4323 199.169 67.0188C199.862 67.5844 200.776 67.8671 201.911 67.8671C202.415 67.8671 202.951 67.7833 203.518 67.6158C204.106 67.4273 204.684 67.1549 205.251 66.7989C205.818 66.4218 206.322 65.961 206.763 65.4164L207.961 66.5161C207.268 67.5215 206.501 68.2965 205.661 68.8412C204.82 69.3858 203.98 69.7523 203.14 69.9409C202.299 70.1503 201.522 70.2551 200.808 70.2551ZM197.373 59.3209H203.927C203.906 58.483 203.78 57.7813 203.549 57.2158C203.339 56.6293 203.024 56.1894 202.604 55.8961C202.184 55.5819 201.669 55.4248 201.06 55.4248C200.03 55.4248 199.201 55.7705 198.57 56.4617C197.961 57.132 197.562 58.0851 197.373 59.3209Z" fill="#015ABC"/>
</svg>
