<svg width="124" height="46" viewBox="0 0 124 46" fill="none" xmlns="http://www.w3.org/2000/svg">
<path d="M0 4.63243C0 2.07401 2.0926 0 4.67395 0H41.7384C44.3198 0 46.4124 2.07401 46.4124 4.63243V22.9768H0V4.63243Z" fill="#015ABC"/>
<path d="M0 22.9768H46.4124V41.3212C46.4124 43.8796 44.3198 45.9536 41.7384 45.9536H4.67395C2.0926 45.9536 0 43.8796 0 41.3212V22.9768Z" fill="#FED702"/>
<path fill-rule="evenodd" clip-rule="evenodd" d="M23.0659 39.2831C32.2168 39.2831 39.6351 31.9307 39.6351 22.8611C39.6351 13.7915 32.2168 6.43916 23.0659 6.43916C13.915 6.43916 6.49676 13.7915 6.49676 22.8611C6.49676 31.9307 13.915 39.2831 23.0659 39.2831ZM23.0659 40.7654C33.0429 40.7654 41.1308 32.7494 41.1308 22.8611C41.1308 12.9728 33.0429 4.95679 23.0659 4.95679C13.089 4.95679 5.0011 12.9728 5.0011 22.8611C5.0011 32.7494 13.089 40.7654 23.0659 40.7654Z" fill="#015ABC"/>
<path fill-rule="evenodd" clip-rule="evenodd" d="M41.1304 22.9769C41.1306 22.9384 41.1308 22.8998 41.1308 22.8611C41.1308 12.9728 33.0429 4.95679 23.0659 4.95679C13.089 4.95679 5.0011 12.9728 5.0011 22.8611C5.0011 22.8998 5.00122 22.9384 5.00147 22.9769H6.49717C6.4969 22.9384 6.49676 22.8998 6.49676 22.8611C6.49676 13.7915 13.915 6.43916 23.0659 6.43916C32.2168 6.43916 39.6351 13.7915 39.6351 22.8611C39.6351 22.8998 39.635 22.9384 39.6347 22.9769H41.1304Z" fill="#FED702"/>
<path d="M25.9136 10.2198C25.3417 10.2184 24.7812 10.3784 24.2976 10.6811C23.814 10.9838 23.4274 11.4166 23.1829 11.9291C22.8945 11.3079 22.3997 10.8036 21.7813 10.5006C21.1628 10.1976 20.4581 10.1141 19.785 10.2642C19.1119 10.4143 18.5112 10.7889 18.0832 11.3252C17.6553 11.8616 17.4262 12.5273 17.434 13.211C17.434 16.3447 23.1829 20.4754 23.1829 20.4754C23.1829 20.4754 28.9318 16.3447 28.9318 13.211C28.9318 12.4177 28.6138 11.6569 28.0478 11.0959C27.4818 10.535 26.7141 10.2198 25.9136 10.2198V10.2198Z" fill="#FED702"/>
<path fill-rule="evenodd" clip-rule="evenodd" d="M23.1823 12.0387L23.1404 11.9484C22.8565 11.3369 22.3694 10.8405 21.7606 10.5421C21.1517 10.2438 20.4579 10.1617 19.7952 10.3094C19.1326 10.4572 18.5412 10.8259 18.1199 11.354C17.6986 11.882 17.473 12.5374 17.4808 13.2105L17.4808 13.211C17.4808 13.9813 17.8345 14.818 18.3716 15.643C18.908 16.4671 19.6242 17.2746 20.3415 17.9856C21.0587 18.6964 21.7761 19.3096 22.3142 19.7451C22.5832 19.9629 22.8074 20.1362 22.9643 20.255C23.0427 20.3144 23.1043 20.3602 23.1462 20.3911C23.1609 20.4019 23.1732 20.4109 23.1829 20.418C23.1926 20.4109 23.2049 20.4019 23.2196 20.3911C23.2615 20.3602 23.3231 20.3144 23.4015 20.255C23.5584 20.1362 23.7826 19.9629 24.0516 19.7451C24.5897 19.3096 25.3071 18.6964 26.0243 17.9856C26.7416 17.2746 27.4578 16.4671 27.9942 15.643C28.5313 14.818 28.885 13.9813 28.885 13.211C28.885 12.43 28.572 11.6809 28.0147 11.1287C27.4575 10.5764 26.7017 10.2661 25.9136 10.2661V10.22L25.9135 10.2661C25.3504 10.2648 24.7986 10.4223 24.3225 10.7203C23.8465 11.0183 23.4659 11.4444 23.2252 11.9489L23.1823 12.0387ZM23.1829 20.4754C23.1829 20.4754 17.434 16.3447 17.434 13.211C17.4262 12.5273 17.6553 11.8616 18.0832 11.3252C18.5112 10.7889 19.1119 10.4143 19.785 10.2642C20.4581 10.1141 21.1628 10.1976 21.7813 10.5006C22.3817 10.7948 22.8656 11.2787 23.1572 11.8751C23.1659 11.893 23.1745 11.911 23.1829 11.9291C23.1915 11.9111 23.2002 11.8932 23.2092 11.8754C23.4547 11.3864 23.831 10.9732 24.2976 10.6811C24.7812 10.3784 25.3417 10.2184 25.9136 10.2198C26.7141 10.2198 27.4818 10.535 28.0478 11.0959C28.6138 11.6569 28.9318 12.4177 28.9318 13.211C28.9318 16.3447 23.1829 20.4754 23.1829 20.4754Z" fill="#FED702"/>
<path d="M33.06 27.8599C32.8939 27.5944 32.5707 27.4595 32.1011 27.4595C30.8554 27.4595 28.6328 28.4024 28.5386 28.4424C28.3784 28.5109 28.2933 28.6872 28.34 28.8541C28.4338 29.1912 28.3552 29.5465 28.1196 29.8543C27.8019 30.2691 26.9129 30.9652 24.5218 30.9652C24.5215 30.9652 24.5211 30.9652 24.5208 30.9652C24.4211 30.9652 24.3201 30.9642 24.2163 30.9615C23.692 30.9491 23.284 30.8534 22.7196 30.7211C22.3348 30.6306 21.8808 30.5249 21.2735 30.4151C21.5829 30.2949 22.0888 30.191 22.885 30.191C23.2979 30.191 23.7657 30.2188 24.2754 30.2732C24.5322 30.3008 24.7831 30.3149 25.0208 30.3149C26.7136 30.3149 27.5991 29.6078 27.5991 28.9099C27.5991 28.5983 27.4209 28.3129 27.1102 28.1277C26.7192 27.8946 26.1368 27.8172 25.4215 27.9063C25.19 27.9353 24.9412 27.9497 24.6824 27.9501C23.6 27.9501 22.4397 27.7001 21.3175 27.4584C20.2409 27.2264 19.2239 27.0071 18.3055 27.0071C18.0841 27.0071 17.873 27.0205 17.6785 27.0467C16.1071 27.2563 15.2002 27.7184 14.1499 28.253C12.8498 28.9154 11.2321 29.7393 7.61805 30.4691C7.5139 30.4905 7.42496 30.5576 7.37652 30.6516C7.32807 30.7456 7.3253 30.8564 7.36925 30.9528C7.44261 31.115 9.19289 34.9327 10.857 35.8144C10.9086 35.8416 10.965 35.855 11.0214 35.855C11.0864 35.855 11.1518 35.8364 11.2089 35.8003C11.2529 35.7727 15.8002 32.8942 18.3851 33.1063C19.7862 33.2192 20.6385 33.4217 21.3234 33.5845C21.6441 33.6609 21.9213 33.7263 22.193 33.7673L22.5528 33.8231C23.0726 33.905 23.5217 33.9756 24.0041 33.9756C25.2028 33.9756 26.4697 33.5081 28.6788 32.2497C29.3013 31.8955 29.8546 31.5894 30.3422 31.3202C32.2676 30.256 33.1465 29.7706 33.3372 29.0366C33.4587 28.5735 33.2375 28.1435 33.06 27.8599V27.8599Z" fill="#015ABC"/>
<path d="M30.0535 35.7861L33.3959 32.4734L36.7384 35.7861L33.3959 39.0989L30.0535 35.7861Z" fill="#FED702"/>
<path fill-rule="evenodd" clip-rule="evenodd" d="M41.1308 35.3454H34.9144V33.8167H41.1308V35.3454Z" fill="#015ABC"/>
<path fill-rule="evenodd" clip-rule="evenodd" d="M36.4568 29.1843L36.4568 35.3455L34.9144 35.3455L34.9144 29.1843L36.4568 29.1843Z" fill="#015ABC"/>
<path d="M16.0784 9.84448L12.7359 13.1573L9.39343 9.84448L12.7359 6.53171L16.0784 9.84448Z" fill="#015ABC"/>
<path fill-rule="evenodd" clip-rule="evenodd" d="M5.00117 10.2853L11.2175 10.2853L11.2175 11.814L5.00117 11.814L5.00117 10.2853Z" fill="#FED702"/>
<path fill-rule="evenodd" clip-rule="evenodd" d="M9.67512 16.4463L9.67512 10.2852L11.2175 10.2852L11.2175 16.4463L9.67512 16.4463Z" fill="#FED702"/>
<path d="M60.2473 18.4556C58.9262 18.4556 57.7919 18.1777 56.8447 17.6218C55.8974 17.0535 55.1683 16.2753 54.6573 15.287C54.1463 14.2864 53.8907 13.1561 53.8907 11.8961C53.8907 11.0437 54.0216 10.2037 54.2834 9.37604C54.5576 8.53603 54.9626 7.78248 55.4986 7.11541C56.0345 6.43599 56.7076 5.89863 57.5177 5.50333C58.3404 5.09568 59.2938 4.89185 60.3782 4.89185C60.7521 4.89185 61.1572 4.92891 61.5934 5.00303C62.0297 5.07715 62.4597 5.18832 62.8834 5.33656C63.3197 5.47245 63.7061 5.63921 64.0426 5.83686L63.9678 5.02156H65.2765V9.32045H64.2482C64.1485 8.59162 63.9304 7.98631 63.5939 7.50454C63.2574 7.02277 62.8273 6.65835 62.3039 6.41129C61.7928 6.15187 61.2195 6.02216 60.5838 6.02216C59.9357 6.02216 59.3499 6.1704 58.8264 6.46687C58.3154 6.76335 57.8792 7.16483 57.5177 7.67131C57.1687 8.17778 56.9008 8.75838 56.7138 9.4131C56.5269 10.0678 56.4334 10.7658 56.4334 11.507C56.4334 12.594 56.6016 13.5699 56.9382 14.4347C57.2872 15.287 57.7795 15.9603 58.4151 16.4544C59.0508 16.9362 59.8173 17.177 60.7147 17.177C60.9889 17.177 61.2943 17.1585 61.6308 17.1215C61.9673 17.072 62.3039 16.9979 62.6404 16.8991C62.9769 16.8003 63.276 16.6829 63.5378 16.547V14.6385C63.5378 14.3173 63.544 14.0023 63.5565 13.6935C63.5689 13.3846 63.5814 13.1314 63.5939 12.9337C63.382 12.9461 63.1389 12.9585 62.8647 12.9708C62.5905 12.9708 62.3724 12.977 62.2104 12.9893V11.7664H66.9404V12.7855C66.6787 12.7979 66.4668 12.8473 66.3048 12.9337C66.1427 13.0079 66.0119 13.1252 65.9122 13.2858C65.8124 13.434 65.7439 13.6193 65.7065 13.8417C65.6691 14.0641 65.6504 14.3173 65.6504 14.6014V17.5106H65.183C64.8839 17.5106 64.5536 17.56 64.1921 17.6588C63.8307 17.7453 63.4381 17.8565 63.0143 17.9924C62.6279 18.1159 62.1979 18.2209 61.7243 18.3074C61.2507 18.4062 60.7583 18.4556 60.2473 18.4556Z" fill="#015ABC"/>
<path d="M72.6587 18.4556C71.7738 18.4556 70.9699 18.2641 70.247 17.8812C69.5241 17.4859 68.9507 16.9362 68.5269 16.232C68.1156 15.5156 67.91 14.6817 67.91 13.7305C67.91 12.7299 68.1219 11.8405 68.5456 11.0622C68.9694 10.284 69.5365 9.67869 70.247 9.24633C70.9699 8.81397 71.7613 8.59779 72.6213 8.59779C73.5063 8.59779 74.3039 8.79544 75.0144 9.19074C75.7248 9.58604 76.2857 10.1358 76.697 10.8399C77.1208 11.544 77.3327 12.3779 77.3327 13.3414C77.3327 14.3544 77.127 15.25 76.7157 16.0282C76.3169 16.7941 75.7622 17.3932 75.0518 17.8256C74.3538 18.2456 73.5561 18.4556 72.6587 18.4556ZM72.7522 17.3253C73.3131 17.3253 73.7431 17.1523 74.0422 16.8065C74.3413 16.4606 74.547 16.022 74.6592 15.4908C74.7838 14.9473 74.8461 14.3914 74.8461 13.8232C74.8461 13.3414 74.8025 12.8535 74.7153 12.3593C74.6405 11.8652 74.5158 11.4205 74.3413 11.0252C74.1668 10.6175 73.9363 10.2963 73.6496 10.0616C73.3629 9.81458 73.0139 9.69105 72.6026 9.69105C72.0542 9.7034 71.618 9.88252 71.2939 10.2284C70.9699 10.5743 70.733 11.0128 70.5835 11.544C70.4464 12.0752 70.3778 12.6373 70.3778 13.2302C70.3778 13.8973 70.4588 14.552 70.6209 15.1944C70.7829 15.8244 71.0384 16.3432 71.3874 16.7509C71.7364 17.1462 72.1913 17.3376 72.7522 17.3253Z" fill="#015ABC"/>
<path d="M83.3577 18.4556C82.4728 18.4556 81.6688 18.2641 80.9459 17.8812C80.223 17.4859 79.6497 16.9362 79.2259 16.232C78.8146 15.5156 78.609 14.6817 78.609 13.7305C78.609 12.7299 78.8208 11.8405 79.2446 11.0622C79.6684 10.284 80.2355 9.67869 80.9459 9.24633C81.6688 8.81397 82.4603 8.59779 83.3203 8.59779C84.2052 8.59779 85.0029 8.79544 85.7134 9.19074C86.4238 9.58604 86.9847 10.1358 87.396 10.8399C87.8198 11.544 88.0316 12.3779 88.0316 13.3414C88.0316 14.3544 87.826 15.25 87.4147 16.0282C87.0158 16.7941 86.4612 17.3932 85.7508 17.8256C85.0528 18.2456 84.2551 18.4556 83.3577 18.4556ZM83.4512 17.3253C84.012 17.3253 84.442 17.1523 84.7412 16.8065C85.0403 16.4606 85.246 16.022 85.3581 15.4908C85.4828 14.9473 85.5451 14.3914 85.5451 13.8232C85.5451 13.3414 85.5015 12.8535 85.4142 12.3593C85.3394 11.8652 85.2148 11.4205 85.0403 11.0252C84.8658 10.6175 84.6352 10.2963 84.3486 10.0616C84.0619 9.81458 83.7129 9.69105 83.3016 9.69105C82.7532 9.7034 82.317 9.88252 81.9929 10.2284C81.6688 10.5743 81.432 11.0128 81.2825 11.544C81.1454 12.0752 81.0768 12.6373 81.0768 13.2302C81.0768 13.8973 81.1578 14.552 81.3198 15.1944C81.4819 15.8244 81.7374 16.3432 82.0864 16.7509C82.4354 17.1462 82.8903 17.3376 83.4512 17.3253Z" fill="#015ABC"/>
<path d="M93.1967 18.4556C92.4488 18.4556 91.782 18.2641 91.1962 17.8812C90.6104 17.4982 90.1492 16.9547 89.8127 16.2506C89.4887 15.5464 89.3266 14.7188 89.3266 13.7676C89.3266 12.767 89.526 11.8776 89.9249 11.0993C90.3237 10.3211 90.8721 9.70957 91.5701 9.26486C92.2806 8.82015 93.0969 8.59779 94.0193 8.59779C94.3807 8.59779 94.7172 8.64103 95.0288 8.7275C95.3529 8.80162 95.6333 8.88809 95.8702 8.98692V7.33777C95.8702 7.15247 95.8702 6.92394 95.8702 6.65217C95.8826 6.3804 95.9013 6.10863 95.9262 5.83686C95.7268 5.84922 95.4962 5.86157 95.2345 5.87392C94.9852 5.88628 94.7733 5.89863 94.5988 5.91098V4.70655C95.1722 4.70655 95.6396 4.68185 96.001 4.63243C96.3625 4.57067 96.6429 4.49655 96.8423 4.41008C97.0542 4.3236 97.2038 4.24331 97.291 4.16919H98.151V15.5094C98.151 15.6947 98.1448 15.9294 98.1324 16.2135C98.1199 16.4853 98.1012 16.757 98.0763 17.0288C98.2882 17.0041 98.5063 16.9918 98.7306 16.9918C98.9674 16.9794 99.1669 16.967 99.3289 16.9547V18.1591H96.0758C96.0509 18.0109 96.026 17.8626 96.001 17.7144C95.9886 17.5538 95.9699 17.4056 95.9449 17.2697C95.5586 17.6774 95.1348 17.9738 94.6736 18.1591C94.2125 18.3568 93.7201 18.4556 93.1967 18.4556ZM94.0754 17.0288C94.4243 17.0288 94.7609 16.9362 95.0849 16.7509C95.409 16.5532 95.6707 16.3123 95.8702 16.0282C95.8577 15.8553 95.8515 15.6823 95.8515 15.5094C95.8515 15.3241 95.8515 15.1388 95.8515 14.9535L95.8702 10.2099C95.6832 10.0616 95.4464 9.95046 95.1597 9.87634C94.873 9.78987 94.5801 9.74663 94.281 9.74663C93.6952 9.75899 93.2154 9.94429 92.8414 10.3025C92.48 10.6484 92.212 11.1055 92.0375 11.6737C91.8755 12.242 91.8007 12.8596 91.8132 13.5267C91.8132 14.132 91.8942 14.7002 92.0562 15.2314C92.2182 15.7626 92.4613 16.195 92.7853 16.5285C93.1219 16.862 93.5519 17.0288 94.0754 17.0288Z" fill="#015ABC"/>
<path d="M104.763 18.4556C104.19 18.4556 103.654 18.3815 103.156 18.2332C102.657 18.085 102.258 17.9059 101.959 17.6959L102.015 18.2888H100.8L100.706 15.1017H101.716C101.753 15.5217 101.903 15.9047 102.165 16.2506C102.426 16.5841 102.763 16.8497 103.174 17.0473C103.598 17.2326 104.065 17.3253 104.576 17.3253C104.826 17.3253 105.063 17.2882 105.287 17.2141C105.524 17.14 105.717 17.0226 105.866 16.862C106.028 16.6891 106.109 16.4729 106.109 16.2135C106.109 15.9417 106.016 15.7194 105.829 15.5464C105.655 15.3735 105.405 15.2129 105.081 15.0647C104.757 14.9164 104.377 14.762 103.941 14.6014C103.554 14.4532 103.168 14.2988 102.782 14.1382C102.395 13.9776 102.04 13.7861 101.716 13.5638C101.392 13.329 101.13 13.0449 100.931 12.7114C100.731 12.3779 100.632 11.9702 100.632 11.4884C100.632 11.1549 100.694 10.8214 100.819 10.4878C100.943 10.1543 101.143 9.84546 101.417 9.56134C101.691 9.26486 102.04 9.03015 102.464 8.85721C102.9 8.68426 103.43 8.59779 104.053 8.59779C104.389 8.59779 104.77 8.65338 105.193 8.76456C105.617 8.86338 105.991 9.03633 106.315 9.28339L106.296 8.69044H107.512V11.9517H106.502C106.44 11.5193 106.303 11.1364 106.091 10.8028C105.879 10.4569 105.598 10.1852 105.249 9.98752C104.9 9.78987 104.483 9.69105 103.997 9.69105C103.598 9.69105 103.261 9.78987 102.987 9.98752C102.713 10.1728 102.576 10.4508 102.576 10.8214C102.576 11.1302 102.682 11.3834 102.894 11.5811C103.106 11.7787 103.392 11.9455 103.754 12.0814C104.115 12.2173 104.508 12.3655 104.932 12.5261C105.517 12.7237 106.047 12.9585 106.521 13.2302C107.007 13.502 107.393 13.8293 107.68 14.2123C107.967 14.5952 108.11 15.0708 108.11 15.6391C108.11 16.2814 107.948 16.8126 107.624 17.2326C107.3 17.6403 106.882 17.9491 106.371 18.1591C105.86 18.3568 105.324 18.4556 104.763 18.4556Z" fill="#015ABC"/>
<path d="M121.388 15.4538C121.388 15.7626 121.382 16.0591 121.37 16.3432C121.357 16.615 121.338 16.8373 121.314 17.0103C121.538 16.9856 121.787 16.9732 122.061 16.9732C122.348 16.9609 122.572 16.9547 122.734 16.9547V18.1591H117.612V17.14H117.724C118.06 17.1276 118.328 17.072 118.528 16.9732C118.74 16.862 118.896 16.6767 118.995 16.4173C119.107 16.1456 119.164 15.7688 119.164 15.287V14.7311H113.891V13.2673L120.416 4.89185H121.388V13.2488H123.239V14.7311H121.388V15.4538ZM119.145 8.35691L115.462 13.1746L119.164 13.2117L119.182 8.35691H119.145Z" fill="#015ABC"/>
<path d="M58.6395 29.1843C58.3154 29.1966 58.0537 29.2522 57.8542 29.351C57.6673 29.4499 57.5302 29.6104 57.4429 29.8328C57.3682 30.0428 57.3308 30.3455 57.3308 30.7408V35.7067C57.3308 36.4479 57.3993 37.0965 57.5364 37.6523C57.686 38.1959 57.8979 38.6529 58.1721 39.0235C58.4463 39.3941 58.7828 39.6721 59.1816 39.8574C59.593 40.0427 60.0666 40.1353 60.6025 40.1353C61.3504 40.16 61.9798 40.0056 62.4908 39.6721C63.0143 39.3385 63.4069 38.8506 63.6686 38.2082C63.9304 37.5659 64.0613 36.7814 64.0613 35.855L64.08 30.889C64.08 30.5802 64.0862 30.2837 64.0986 29.9996C64.1111 29.7154 64.1298 29.4931 64.1547 29.3325C63.9428 29.3449 63.6998 29.3572 63.4256 29.3696C63.1514 29.3696 62.9333 29.3757 62.7712 29.3881V28.1651H66.8095V29.1843C66.473 29.1966 66.205 29.2584 66.0056 29.3696C65.8187 29.4684 65.6878 29.6475 65.613 29.9069C65.5382 30.1663 65.5008 30.5369 65.5008 31.0187L65.4821 35.54C65.4821 36.5159 65.3637 37.3744 65.1269 38.1156C64.9026 38.8444 64.566 39.4559 64.1173 39.95C63.6686 40.4442 63.1265 40.8147 62.4908 41.0618C61.8551 41.3089 61.1322 41.4324 60.3221 41.4324C59.2876 41.4324 58.4214 41.2903 57.7234 41.0062C57.0379 40.7221 56.4895 40.3144 56.0781 39.7833C55.6793 39.2397 55.3926 38.6035 55.2181 37.8747C55.0561 37.1335 54.9751 36.3059 54.9751 35.3917V31.1484C54.9751 30.8272 54.9813 30.4937 54.9938 30.1478C55.0187 29.7896 55.0374 29.5178 55.0499 29.3325C54.838 29.3449 54.5949 29.3572 54.3207 29.3696C54.0465 29.3696 53.8284 29.3757 53.6664 29.3881V28.1651H58.6395V29.1843Z" fill="#015ABC"/>
<path d="M67.816 41.1359V40.1539C68.1775 40.1539 68.433 40.0797 68.5826 39.9315C68.7446 39.7709 68.8443 39.5486 68.8817 39.2644C68.9191 38.9803 68.9378 38.6591 68.9378 38.3009V30.296C68.9378 30.086 68.944 29.8575 68.9565 29.6104C68.969 29.351 68.9877 29.0854 69.0126 28.8137C68.8007 28.826 68.5701 28.8384 68.3208 28.8507C68.0716 28.8631 67.8597 28.8754 67.6852 28.8878V27.6834C68.2585 27.6834 68.7259 27.6587 69.0874 27.6092C69.4488 27.5475 69.7293 27.4734 69.9287 27.3869C70.1406 27.3004 70.2901 27.2201 70.3774 27.146H71.2374V35.7067H72.0787L73.7426 33.8908C73.9171 33.7055 74.0667 33.5449 74.1913 33.409C74.3284 33.2608 74.4655 33.1373 74.6026 33.0384L73.5183 33.057V31.8711H77.4444V32.8531C77.0206 32.8902 76.6342 33.0014 76.2853 33.1867C75.9363 33.3596 75.6309 33.5635 75.3692 33.7982C75.1074 34.0329 74.8768 34.2552 74.6774 34.4652L73.4061 35.8735C73.6055 35.96 73.7925 36.0897 73.967 36.2626C74.1539 36.4356 74.3658 36.6703 74.6026 36.9667L75.8739 38.6159C75.9487 38.7024 76.0484 38.8321 76.1731 39.005C76.3102 39.1656 76.4597 39.3385 76.6218 39.5238C76.7963 39.6968 76.9832 39.845 77.1827 39.9686C77.3821 40.0921 77.5815 40.1539 77.7809 40.1539V41.1359H75.7805C75.3941 41.1359 75.0451 40.9877 74.7335 40.6912C74.4344 40.3824 74.0978 39.9809 73.7239 39.4868C73.4746 39.1409 73.2254 38.795 72.9761 38.4491C72.7268 38.0909 72.4962 37.7697 72.2843 37.4856C72.0849 37.1891 71.9167 36.9606 71.7796 36.8L71.2374 36.8185V38.4862C71.2374 38.6838 71.2311 38.9247 71.2187 39.2088C71.2062 39.4806 71.1875 39.7462 71.1626 40.0056C71.362 39.9809 71.5739 39.9686 71.7983 39.9686C72.0226 39.9562 72.2158 39.95 72.3778 39.95V41.1359H67.816Z" fill="#015ABC"/>
<path d="M78.8315 40.1539C79.193 40.1539 79.4485 40.0797 79.5981 39.9315C79.7476 39.7709 79.8411 39.5486 79.8785 39.2644C79.9159 38.9803 79.9346 38.6591 79.9346 38.3009V34.8173C79.9346 34.5949 79.9408 34.3602 79.9533 34.1132C79.9657 33.8661 79.9844 33.6129 80.0094 33.3535C79.7975 33.3658 79.5669 33.3782 79.3176 33.3905C79.0683 33.3905 78.8627 33.3967 78.7007 33.409V32.2231H79.3924C79.891 32.2231 80.3085 32.1675 80.645 32.0564C80.9816 31.9328 81.2184 31.8093 81.3555 31.6858H82.1407C82.1656 31.834 82.1843 32.0687 82.1968 32.3899C82.2092 32.7111 82.2155 33.0323 82.2155 33.3535C82.5021 32.9829 82.8013 32.6679 83.1129 32.4084C83.4245 32.1367 83.7423 31.9328 84.0664 31.797C84.4029 31.6487 84.7456 31.5746 85.0946 31.5746C85.4935 31.5746 85.8425 31.6858 86.1416 31.9081C86.4532 32.1305 86.609 32.4887 86.609 32.9829C86.609 33.1434 86.5654 33.3164 86.4781 33.5017C86.4033 33.687 86.2787 33.8414 86.1042 33.9649C85.9422 34.0885 85.7178 34.1502 85.4312 34.1502C85.1694 34.1502 84.9201 34.0699 84.6833 33.9093C84.459 33.7364 84.3406 33.4646 84.3281 33.094C84.0664 33.0817 83.7922 33.1743 83.5055 33.372C83.2313 33.5696 82.982 33.8105 82.7577 34.0946C82.5333 34.3788 82.3588 34.6691 82.2342 34.9655L82.2529 38.4862C82.2529 38.6838 82.2466 38.9247 82.2342 39.2088C82.2217 39.4806 82.203 39.7462 82.1781 40.0056C82.3775 39.9809 82.5894 39.9686 82.8137 39.9686C83.0381 39.9562 83.2251 39.95 83.3746 39.95V41.1359H78.8315V40.1539Z" fill="#015ABC"/>
<path d="M92.7601 41.1359C92.7227 40.9506 92.6977 40.7962 92.6853 40.6727C92.6853 40.5368 92.679 40.3824 92.6666 40.2094C92.2428 40.6294 91.7879 40.9383 91.3018 41.1359C90.8282 41.3336 90.3358 41.4324 89.8248 41.4324C88.9773 41.4324 88.3229 41.2039 87.8618 40.7468C87.4131 40.2897 87.1887 39.7277 87.1887 39.0606C87.1887 38.4677 87.3507 37.9673 87.6748 37.5597C87.9989 37.1397 88.4226 36.8 88.9461 36.5406C89.4696 36.2688 90.0492 36.065 90.6848 35.9291C91.3205 35.7808 91.9499 35.7005 92.5731 35.6882V34.6691C92.5731 34.3108 92.5295 33.9835 92.4422 33.687C92.3675 33.3782 92.2241 33.1373 92.0122 32.9643C91.8003 32.779 91.4887 32.6864 91.0774 32.6864C90.8032 32.6987 90.5228 32.7605 90.2361 32.8717C89.9619 32.9705 89.7438 33.1311 89.5818 33.3535C89.6815 33.4646 89.7438 33.5882 89.7687 33.724C89.7937 33.8476 89.8061 33.9588 89.8061 34.0576C89.8061 34.2799 89.7189 34.5146 89.5444 34.7617C89.3699 34.9964 89.0895 35.1076 88.7031 35.0952C88.3665 35.0829 88.1048 34.9655 87.9178 34.7432C87.7434 34.5208 87.6561 34.2552 87.6561 33.9464C87.6561 33.477 87.8244 33.0693 88.1609 32.7234C88.5099 32.3652 88.9773 32.0873 89.5631 31.8896C90.1489 31.6796 90.8032 31.5746 91.5261 31.5746C92.598 31.5746 93.4206 31.8525 93.994 32.4084C94.5673 32.9643 94.8478 33.8538 94.8353 35.0767C94.8353 35.5091 94.8353 35.9044 94.8353 36.2626C94.8353 36.6085 94.8291 36.9606 94.8166 37.3188C94.8166 37.6647 94.8166 38.0538 94.8166 38.4862C94.8166 38.6715 94.8104 38.9062 94.7979 39.1903C94.7854 39.4621 94.7667 39.7338 94.7418 40.0056C94.9662 39.9809 95.1905 39.9686 95.4149 39.9686C95.6517 39.9562 95.8449 39.9439 95.9944 39.9315V41.1359H92.7601ZM92.5544 36.7814C92.1805 36.8062 91.8128 36.8679 91.4514 36.9667C91.0899 37.0532 90.7658 37.1767 90.4792 37.3373C90.1925 37.4979 89.9619 37.7018 89.7874 37.9488C89.6254 38.1835 89.5506 38.4553 89.5631 38.7641C89.5755 39.1471 89.7002 39.4312 89.937 39.6165C90.1738 39.7894 90.448 39.8759 90.7596 39.8759C91.1211 39.8759 91.4451 39.8018 91.7318 39.6536C92.0309 39.5053 92.3051 39.3077 92.5544 39.0606C92.5544 38.9371 92.5544 38.8074 92.5544 38.6715C92.5544 38.5356 92.5544 38.3997 92.5544 38.2638C92.5544 38.0909 92.5544 37.8747 92.5544 37.6153C92.5544 37.3559 92.5544 37.0779 92.5544 36.7814Z" fill="#015ABC"/>
<path d="M97.1439 40.1539C97.5054 40.1539 97.7609 40.0797 97.9105 39.9315C98.06 39.7709 98.1535 39.5486 98.1909 39.2644C98.2283 38.9803 98.247 38.6591 98.247 38.3009V34.8358C98.247 34.6258 98.2532 34.3973 98.2657 34.1502C98.2782 33.8908 98.2968 33.6252 98.3218 33.3535C98.1099 33.3658 97.8793 33.3782 97.63 33.3905C97.3808 33.4029 97.1751 33.4152 97.0131 33.4276V32.2231C97.5739 32.2231 98.0351 32.1984 98.3966 32.149C98.7705 32.0873 99.0571 32.0131 99.2566 31.9267C99.4685 31.8402 99.618 31.7599 99.7053 31.6858H100.547V38.4862C100.547 38.6838 100.54 38.9247 100.528 39.2088C100.528 39.4806 100.509 39.7462 100.472 40.0056C100.671 39.9809 100.883 39.9686 101.107 39.9686C101.344 39.9562 101.537 39.95 101.687 39.95V41.1359H97.1439V40.1539ZM99.294 30.0922C98.9325 30.0922 98.6271 29.9625 98.3779 29.7031C98.1286 29.4313 98.0039 29.104 98.0039 28.721C98.0039 28.3381 98.1286 28.0107 98.3779 27.7389C98.6396 27.4672 98.945 27.3313 99.294 27.3313C99.6554 27.3313 99.9545 27.4672 100.191 27.7389C100.441 28.0107 100.565 28.3381 100.565 28.721C100.565 29.104 100.447 29.4313 100.21 29.7031C99.9732 29.9625 99.6679 30.0922 99.294 30.0922Z" fill="#015ABC"/>
<path d="M102.968 41.1359V40.1539C103.33 40.1539 103.585 40.0797 103.735 39.9315C103.884 39.7709 103.978 39.5486 104.015 39.2644C104.052 38.9803 104.071 38.6591 104.071 38.3009V34.8173C104.071 34.5949 104.077 34.3602 104.09 34.1132C104.102 33.8661 104.121 33.6129 104.146 33.3535C103.947 33.3658 103.716 33.3782 103.454 33.3905C103.205 33.4029 102.999 33.4152 102.837 33.4276V32.2231C103.398 32.2231 103.859 32.1984 104.221 32.149C104.582 32.0873 104.863 32.0131 105.062 31.9267C105.261 31.8402 105.405 31.7599 105.492 31.6858H106.277C106.302 31.8217 106.315 31.9328 106.315 32.0193C106.315 32.1058 106.321 32.1984 106.333 32.2973C106.346 32.3837 106.365 32.5134 106.389 32.6864C106.639 32.4764 106.925 32.2911 107.249 32.1305C107.586 31.9575 107.923 31.8217 108.259 31.7228C108.596 31.624 108.907 31.5746 109.194 31.5746C110.316 31.5746 111.12 31.902 111.606 32.5567C112.092 33.2114 112.335 34.2552 112.335 35.6882V38.4862C112.335 38.6838 112.329 38.9247 112.316 39.2088C112.316 39.4806 112.297 39.7462 112.26 40.0056C112.472 39.9809 112.69 39.9686 112.914 39.9686C113.139 39.9562 113.326 39.95 113.475 39.95V41.1359H108.932V40.1539C109.294 40.1539 109.549 40.0797 109.699 39.9315C109.861 39.7709 109.96 39.5486 109.998 39.2644C110.035 38.9803 110.054 38.6591 110.054 38.3009L110.035 35.6697C110.035 34.7802 109.898 34.1193 109.624 33.687C109.362 33.2423 108.926 33.0199 108.315 33.0199C107.954 33.0323 107.598 33.1187 107.249 33.2793C106.9 33.4399 106.608 33.6437 106.371 33.8908C106.383 34.039 106.389 34.1935 106.389 34.3541C106.389 34.5146 106.389 34.6752 106.389 34.8358L106.371 38.4862C106.371 38.6838 106.365 38.9247 106.352 39.2088C106.352 39.4806 106.333 39.7462 106.296 40.0056C106.495 39.9809 106.707 39.9686 106.932 39.9686C107.168 39.9562 107.362 39.95 107.511 39.95V41.1359H102.968Z" fill="#015ABC"/>
<path d="M119.14 41.4324C118.242 41.4324 117.444 41.2348 116.747 40.8395C116.049 40.4318 115.506 39.8636 115.12 39.1347C114.734 38.3935 114.54 37.5226 114.54 36.522C114.54 35.6573 114.734 34.8482 115.12 34.0946C115.506 33.3411 116.049 32.7358 116.747 32.2787C117.457 31.8093 118.28 31.5746 119.214 31.5746C119.738 31.5746 120.243 31.6487 120.729 31.797C121.215 31.9452 121.651 32.1923 122.037 32.5381C122.424 32.884 122.729 33.3411 122.954 33.9093C123.19 34.4776 123.303 35.1694 123.29 35.9847L117.008 36.0958C117.008 36.8617 117.095 37.5412 117.27 38.1341C117.457 38.7147 117.756 39.178 118.167 39.5238C118.579 39.8574 119.121 40.0241 119.794 40.0241C120.093 40.0241 120.411 39.9747 120.747 39.8759C121.096 39.7647 121.439 39.6041 121.776 39.3941C122.112 39.1718 122.411 38.9 122.673 38.5788L123.384 39.2274C122.972 39.8203 122.517 40.2774 122.019 40.5986C121.52 40.9197 121.022 41.1359 120.523 41.2471C120.025 41.3706 119.563 41.4324 119.14 41.4324ZM117.102 34.9841H120.99C120.978 34.4899 120.903 34.0761 120.766 33.7426C120.641 33.3967 120.455 33.1373 120.205 32.9643C119.956 32.779 119.651 32.6864 119.289 32.6864C118.678 32.6864 118.186 32.8902 117.812 33.2979C117.451 33.6932 117.214 34.2552 117.102 34.9841Z" fill="#015ABC"/>
</svg>
