<svg width="1191" height="384" viewBox="0 0 1191 384" fill="none" xmlns="http://www.w3.org/2000/svg">
<path d="M702.797 314.655H926.087C926.602 314.655 927.065 314.243 927.116 313.728C927.168 313.367 931.335 275.786 941.265 263.842C944.969 259.415 949.703 255.966 954.282 252.619C962.256 246.853 969.768 241.396 969.768 231.769C969.768 228.372 968.585 225.643 966.218 223.635C959.581 217.921 945.947 219.826 944.969 219.98C944.301 220.032 937.252 220.855 930.203 228.629C920.788 239.028 915.901 256.378 915.798 280.213H717.975C716.071 274.242 702.952 236.506 680.726 236.454C680.16 236.403 675.787 236.145 672.751 238.874C670.848 240.573 669.921 243.044 669.87 246.184C669.716 247.214 669.664 253.031 682.166 261.526C694.514 269.917 697.653 285.928 697.704 286.082C697.755 286.288 701.82 304.152 701.82 313.676C701.769 314.191 702.232 314.655 702.797 314.655V314.655ZM925.161 312.595H703.775C703.518 302.659 699.813 286.288 699.659 285.619C699.556 284.95 696.366 268.682 683.298 259.775C671.362 251.641 671.876 246.442 671.876 246.39V246.236C671.876 243.662 672.597 241.705 674.037 240.418C676.558 238.153 680.469 238.513 680.52 238.513H680.623C702.746 238.513 716.02 281.14 716.174 281.552C716.329 281.964 716.689 282.273 717.152 282.273H916.775C917.048 282.272 917.309 282.163 917.502 281.97C917.695 281.777 917.803 281.516 917.804 281.243C917.804 264.923 920.171 242.786 931.541 230.122C938.281 222.657 945.072 222.039 945.124 221.988H945.175C945.33 221.988 958.758 219.98 964.829 225.18C966.732 226.827 967.659 228.989 967.659 231.769C967.659 240.367 960.867 245.258 952.995 250.972C948.314 254.37 943.477 257.87 939.567 262.555C930.101 274.036 925.882 306.572 925.161 312.595V312.595Z" fill="#9CC9D3"/>
<path d="M677.382 238.668C677.536 238.668 677.639 238.668 677.793 238.565C678.513 238.256 679.131 237.999 679.697 237.741C685.305 235.219 686.128 234.807 746.015 234.807C811.304 234.807 859.615 216.376 860.078 216.222C884.414 208.088 918.679 200.263 943.375 209.169C955.105 213.39 960.97 220.289 962.462 223.326C962.522 223.448 962.606 223.557 962.709 223.647C962.811 223.736 962.931 223.804 963.06 223.847C963.189 223.891 963.325 223.908 963.461 223.898C963.597 223.888 963.729 223.851 963.851 223.79C963.973 223.73 964.082 223.646 964.172 223.543C964.261 223.44 964.329 223.321 964.372 223.192C964.415 223.062 964.432 222.926 964.422 222.79C964.412 222.654 964.376 222.522 964.314 222.4C964.109 221.988 959.632 212.824 944.301 207.264C919.039 198.049 884.156 205.977 859.358 214.266C858.843 214.472 810.892 232.748 745.963 232.748C685.613 232.748 684.842 233.108 678.771 235.836C678.205 236.094 677.639 236.351 676.918 236.66C676.404 236.866 676.147 237.484 676.353 237.999C676.61 238.462 677.021 238.668 677.382 238.668V238.668ZM899.231 325.466H912.659C912.932 325.465 913.193 325.356 913.386 325.163C913.579 324.97 913.687 324.709 913.688 324.436C913.688 318.722 916.981 314.294 916.981 314.243C917.238 313.934 917.238 313.522 917.084 313.162C916.93 312.801 916.569 312.595 916.158 312.595H895.63C895.218 312.595 894.858 312.801 894.703 313.162C894.549 313.522 894.549 313.934 894.806 314.243C894.858 314.294 898.099 318.722 898.099 324.436C898.202 325.002 898.665 325.466 899.231 325.466ZM911.733 323.406H900.26C900.054 319.597 898.614 316.456 897.585 314.655H914.357C913.328 316.456 911.939 319.597 911.733 323.406V323.406ZM717.615 325.466H731.043C731.316 325.465 731.577 325.356 731.77 325.163C731.963 324.97 732.071 324.709 732.072 324.436C732.072 318.722 735.365 314.294 735.365 314.243C735.622 313.934 735.622 313.522 735.468 313.162C735.313 312.801 734.953 312.595 734.542 312.595H714.013C713.602 312.595 713.242 312.801 713.087 313.162C712.933 313.522 712.933 313.934 713.19 314.243C713.242 314.294 716.483 318.722 716.483 324.436C716.586 325.002 717.049 325.466 717.615 325.466V325.466ZM730.117 323.406H718.644C718.438 319.597 716.998 316.456 715.969 314.655H732.741C731.712 316.456 730.323 319.597 730.117 323.406V323.406ZM707.119 1.802H812.436C812.639 1.79717 812.833 1.71429 812.977 1.57054C813.12 1.4268 813.203 1.23323 813.208 1.03C813.208 0.618 812.848 0.257 812.436 0.257H707.068C706.656 0.257 706.296 0.617 706.296 1.03C706.296 1.441 706.656 1.802 707.119 1.802V1.802ZM489.54 298.592H700.74C701.012 298.591 701.274 298.482 701.466 298.289C701.659 298.097 701.767 297.835 701.768 297.563C701.768 296.996 701.305 296.533 700.74 296.533H489.54C488.974 296.533 488.511 296.996 488.511 297.563C488.511 298.129 488.974 298.592 489.54 298.592ZM927.734 296.584H1191V298.644H927.734V296.584ZM761.141 144.56C761.414 144.559 761.675 144.45 761.868 144.257C762.061 144.064 762.169 143.803 762.17 143.53V103.375C762.17 102.808 761.707 102.345 761.141 102.345C760.575 102.345 760.112 102.808 760.112 103.375V143.53C760.112 144.148 760.575 144.56 761.141 144.56ZM819.69 137.661C819.963 137.66 820.224 137.552 820.417 137.359C820.61 137.166 820.718 136.905 820.719 136.632V1.03C820.719 0.463 820.256 0 819.69 0C819.124 0 818.661 0.463 818.661 1.03V136.632C818.661 137.198 819.124 137.661 819.69 137.661Z" fill="#9CC9D3"/>
<path d="M707.119 137.661C707.392 137.66 707.653 137.552 707.846 137.359C708.039 137.166 708.147 136.905 708.148 136.632V1.03C708.148 0.463 707.685 0 707.119 0C706.553 0 706.09 0.463 706.09 1.03V136.632C706.09 137.198 706.553 137.661 707.119 137.661ZM701.563 144.869H825.247C825.52 144.868 825.781 144.759 825.974 144.566C826.167 144.373 826.275 144.112 826.276 143.839C826.276 143.273 825.813 142.809 825.247 142.809H701.563C700.997 142.809 700.534 143.273 700.534 143.839C700.534 144.405 700.997 144.869 701.563 144.869Z" fill="#9CC9D3"/>
<path d="M707.942 72.0741H761.141C761.414 72.0733 761.675 71.9645 761.868 71.7714C762.061 71.5784 762.169 71.3169 762.17 71.0441V8.34006C762.17 7.77406 761.707 7.31006 761.141 7.31006C760.575 7.31006 760.112 7.77406 760.112 8.34006V70.0151H707.891C707.325 70.0151 706.862 70.4781 706.862 71.0451C706.862 71.6111 707.377 72.0741 707.942 72.0741ZM761.141 119.746C761.414 119.745 761.675 119.636 761.868 119.443C762.061 119.25 762.169 118.989 762.17 118.716V76.5011C762.17 75.9351 761.707 75.4711 761.141 75.4711H717.203C716.637 75.4711 716.174 75.9351 716.174 76.5011C716.174 77.0681 716.637 77.5311 717.203 77.5311H760.112V118.716C760.112 119.282 760.575 119.746 761.141 119.746V119.746ZM766.852 144.56C767.125 144.559 767.386 144.45 767.579 144.257C767.772 144.064 767.88 143.803 767.881 143.53V77.5311H819.69C819.963 77.5303 820.224 77.4215 820.417 77.2284C820.61 77.0354 820.718 76.7739 820.719 76.5011C820.719 75.9351 820.256 75.4711 819.69 75.4711H766.852C766.286 75.4711 765.823 75.9351 765.823 76.5011V143.53C765.823 144.148 766.286 144.56 766.852 144.56ZM812.487 72.2801C812.76 72.2793 813.021 72.1705 813.214 71.9774C813.407 71.7844 813.515 71.5229 813.516 71.2501C813.516 70.6841 813.053 70.2201 812.487 70.2201L766.903 70.0151C766.337 70.0151 765.874 70.4781 765.874 71.0451C765.874 71.6111 766.337 72.0741 766.903 72.0741L812.487 72.2801Z" fill="#9CC9D3"/>
<path d="M766.852 72.074C767.125 72.0732 767.386 71.9644 767.579 71.7714C767.772 71.5784 767.88 71.3169 767.881 71.044V1.13303C767.881 0.566027 767.418 0.103027 766.852 0.103027C766.286 0.103027 765.823 0.566027 765.823 1.13303V71.044C765.823 71.611 766.286 72.074 766.852 72.074ZM207.598 298.386H212.228C212.64 298.386 213 298.129 213.154 297.769L219.071 284.126H323.41L329.327 297.769C329.481 298.129 329.841 298.386 330.253 298.386H334.883C335.156 298.385 335.417 298.277 335.61 298.084C335.803 297.891 335.911 297.63 335.912 297.357L336.53 169.889C336.53 169.322 336.067 168.859 335.501 168.859C334.935 168.859 334.472 169.322 334.472 169.889L333.854 296.327H330.922L325.005 282.684C324.851 282.324 324.491 282.067 324.079 282.067H218.402C217.991 282.067 217.631 282.324 217.476 282.684L211.56 296.327H208.627V283.148C208.627 282.942 208.575 282.736 208.473 282.582L208.781 170.301C208.781 169.734 208.318 169.271 207.752 169.271C207.186 169.271 206.723 169.734 206.723 170.301L206.415 283.148C206.415 283.354 206.466 283.56 206.569 283.714V297.357C206.62 297.923 207.032 298.386 207.598 298.386V298.386ZM218.608 269.299H325.057C325.33 269.298 325.591 269.19 325.784 268.997C325.977 268.804 326.085 268.543 326.086 268.27V224.305C326.086 223.738 325.623 223.275 325.057 223.275H218.608C218.042 223.275 217.579 223.738 217.579 224.305V268.27C217.579 268.836 218.042 269.299 218.608 269.299V269.299ZM273.762 267.24H219.637V225.334H324.028V267.24H273.762V267.24ZM218.608 216.788H325.057C325.33 216.787 325.591 216.679 325.784 216.486C325.977 216.293 326.085 216.032 326.086 215.759V170.095C326.086 169.528 325.623 169.065 325.057 169.065H218.608C218.042 169.065 217.579 169.528 217.579 170.095V215.759C217.579 216.325 218.042 216.788 218.608 216.788V216.788ZM273.762 214.729H219.637V171.124H324.028V214.729H273.762V214.729ZM207.649 161.343L335.655 160.828C335.928 160.827 336.189 160.718 336.382 160.525C336.575 160.332 336.683 160.071 336.684 159.798C336.684 159.232 336.221 158.769 335.655 158.769L207.649 159.283C207.083 159.283 206.62 159.747 206.62 160.313C206.62 160.879 207.083 161.343 207.649 161.343V161.343Z" fill="#9CC9D3"/>
<path d="M0 296.584H412.572V298.644H0V296.584ZM482.286 243.816C482.559 243.815 482.82 243.706 483.013 243.513C483.206 243.32 483.314 243.059 483.315 242.786C483.109 204.948 483.109 135.962 483.315 98.021C483.315 97.454 482.852 96.991 482.286 96.991C481.72 96.991 481.257 97.454 481.257 98.021C481.051 135.962 481.051 204.999 481.257 242.838C481.257 243.353 481.72 243.816 482.286 243.816V243.816Z" fill="#9CC9D3"/>
<path d="M482.286 254.782C482.286 254.782 482.337 254.782 482.286 254.782C482.903 254.73 483.315 254.267 483.315 253.701C483.16 249.891 483.16 245.927 483.315 241.963C483.366 241.396 482.903 240.933 482.337 240.882C481.771 240.83 481.308 241.294 481.257 241.86C481.051 245.875 481.051 249.891 481.257 253.804C481.308 254.318 481.72 254.782 482.286 254.782V254.782ZM418.746 107.957C419.019 107.956 419.28 107.847 419.473 107.654C419.666 107.461 419.774 107.2 419.775 106.927V97.6599C419.775 97.0939 419.312 96.6299 418.746 96.6299C418.18 96.6299 417.717 97.0939 417.717 97.6599V106.927C417.717 107.493 418.18 107.957 418.746 107.957Z" fill="#9CC9D3"/>
<path d="M418.746 231.512C419.019 231.511 419.28 231.402 419.473 231.209C419.666 231.016 419.774 230.755 419.775 230.482V106.927C419.775 106.361 419.312 105.897 418.746 105.897C418.18 105.897 417.717 106.361 417.717 106.927V230.482C417.717 231.049 418.18 231.512 418.746 231.512V231.512Z" fill="#9CC9D3"/>
<path d="M418.746 254.782C419.019 254.781 419.28 254.672 419.473 254.479C419.666 254.286 419.774 254.025 419.775 253.752V227.085C419.775 226.518 419.312 226.055 418.746 226.055C418.18 226.055 417.717 226.518 417.717 227.085V253.752C417.717 254.318 418.18 254.782 418.746 254.782ZM479.559 315.993C485.836 315.993 490.981 310.845 490.981 304.564C490.977 303.341 490.786 302.126 490.415 300.961C490.209 300.446 489.643 300.137 489.129 300.291C488.614 300.446 488.305 301.063 488.46 301.578C488.768 302.543 488.924 303.551 488.923 304.564C488.923 309.712 484.704 313.934 479.559 313.934C474.414 313.934 470.195 309.712 470.195 304.564C470.184 302.582 470.816 300.649 471.996 299.056C472.101 298.898 472.165 298.717 472.183 298.528C472.201 298.34 472.172 298.15 472.099 297.975C471.944 297.614 471.584 297.408 471.173 297.408H458.413C457.847 297.408 457.384 297.872 457.384 298.438C457.384 299.004 457.847 299.468 458.413 299.468H469.372C468.594 301.054 468.189 302.797 468.189 304.564C468.189 310.845 473.282 315.993 479.559 315.993V315.993Z" fill="#9CC9D3"/>
<path d="M421.113 315.993C427.389 315.993 432.534 310.845 432.534 304.564C432.534 302.762 432.123 301.012 431.351 299.468H443.905C444.178 299.467 444.439 299.358 444.632 299.165C444.825 298.972 444.933 298.711 444.934 298.438C444.934 297.872 444.471 297.408 443.905 297.408H429.499C429.087 297.408 428.779 297.614 428.573 297.975C428.418 298.335 428.418 298.747 428.676 299.056C429.856 300.649 430.487 302.582 430.476 304.564C430.476 309.712 426.257 313.934 421.113 313.934C415.968 313.934 411.749 309.712 411.749 304.564C411.749 302.35 412.521 300.188 413.961 298.541C414.064 298.386 414.167 298.232 414.218 298.026L418.643 265.593H482.44L485.784 289.943C485.836 290.51 486.402 290.922 486.916 290.819C487.482 290.716 487.894 290.201 487.791 289.686L484.344 264.46C484.292 263.945 483.829 263.585 483.315 263.585H417.717C417.202 263.585 416.791 263.945 416.688 264.46L412.16 297.511C410.565 299.519 409.639 302.042 409.639 304.667C409.691 310.845 414.784 315.993 421.113 315.993V315.993ZM486.556 61.469C487.071 61.469 487.534 61.057 487.585 60.542L488.974 48.392C488.997 48.1945 488.966 47.9946 488.884 47.8133C488.803 47.632 488.674 47.4761 488.511 47.362L452.805 25.689C452.342 25.38 451.673 25.535 451.416 26.049C451.108 26.513 451.262 27.182 451.776 27.439L486.916 48.753L485.578 60.285C485.552 60.5577 485.635 60.8296 485.809 61.0415C485.982 61.2535 486.233 61.3884 486.505 61.417C486.453 61.469 486.505 61.469 486.556 61.469V61.469ZM482.852 93.954C483.366 93.954 483.778 93.594 483.881 93.078L486.968 69.448C487.019 68.882 486.659 68.368 486.093 68.316C485.527 68.264 485.013 68.625 484.961 69.191L481.874 92.821C481.823 93.387 482.183 93.902 482.749 93.954H482.852V93.954Z" fill="#9CC9D3"/>
<path d="M482.286 98.69C482.8 98.69 483.263 98.278 483.315 97.763L483.881 93.027C483.908 92.7541 483.825 92.4818 483.652 92.2695C483.478 92.0573 483.228 91.9222 482.955 91.894C482.682 91.8677 482.41 91.9504 482.198 92.1241C481.986 92.2978 481.851 92.5483 481.823 92.821L481.257 97.557C481.23 97.8298 481.313 98.1021 481.486 98.3144C481.66 98.5266 481.91 98.6617 482.183 98.69H482.286ZM414.064 57.762H414.167C414.439 57.7334 414.69 57.5985 414.863 57.3865C415.036 57.1745 415.119 56.9026 415.093 56.63L414.321 49.783C414.291 49.5301 414.17 49.2967 413.981 49.1262C413.791 48.9558 413.547 48.8597 413.292 48.856C412.726 48.856 412.263 49.319 412.263 49.886V49.988L413.035 56.836C413.086 57.402 413.55 57.762 414.064 57.762Z" fill="#9CC9D3"/>
<path d="M416.997 83.5029H417.099C417.372 83.4744 417.622 83.3393 417.796 83.1271C417.969 82.915 418.052 82.6428 418.026 82.3699L415.093 56.8359C415.065 56.5632 414.93 56.3127 414.718 56.1391C414.506 55.9654 414.234 55.8827 413.961 55.9089C413.395 55.9599 412.984 56.4749 413.035 57.0419L415.968 82.5759C416.07 83.1429 416.482 83.5029 416.997 83.5029V83.5029ZM450.284 91.1219C455.528 91.1234 460.614 89.324 464.69 86.0249C465.153 85.6649 465.205 85.0469 464.844 84.5839C464.484 84.1209 463.867 84.0689 463.404 84.4299C459.683 87.4186 455.056 89.0525 450.284 89.0629C438.76 89.0629 429.396 79.6929 429.396 68.1619C429.396 56.6299 438.76 47.2599 450.284 47.2599C461.809 47.2599 471.173 56.6299 471.173 68.1619C471.173 70.7349 470.71 73.2579 469.784 75.6259C469.734 75.7542 469.711 75.8911 469.715 76.0285C469.72 76.1659 469.752 76.3011 469.809 76.426C469.867 76.5508 469.949 76.6629 470.05 76.7555C470.152 76.8481 470.271 76.9193 470.401 76.9649C470.529 77.0143 470.666 77.0375 470.803 77.033C470.941 77.0285 471.076 76.9965 471.201 76.9389C471.325 76.8812 471.437 76.7992 471.53 76.6975C471.622 76.5958 471.693 76.4766 471.739 76.3469C472.723 73.7302 473.229 70.9577 473.231 68.1619C473.231 55.4969 462.941 45.2009 450.284 45.2009C437.628 45.2009 427.338 55.4969 427.338 68.1609C427.338 80.8259 437.628 91.1219 450.284 91.1219V91.1219ZM471.379 254.782C471.652 254.781 471.913 254.672 472.106 254.479C472.299 254.286 472.407 254.025 472.408 253.752V225.437C472.408 224.871 471.944 224.408 471.379 224.408C470.813 224.408 470.35 224.871 470.35 225.437V253.752C470.35 254.318 470.813 254.782 471.379 254.782ZM471.379 187.547C471.652 187.546 471.913 187.437 472.106 187.244C472.299 187.051 472.407 186.79 472.408 186.517V106.927C472.408 106.361 471.944 105.897 471.379 105.897H451.571C451.005 105.897 450.542 106.361 450.542 106.927C450.542 107.493 451.005 107.957 451.571 107.957H470.35V186.466C470.35 187.084 470.813 187.547 471.379 187.547ZM429.653 254.782C429.926 254.781 430.187 254.672 430.38 254.479C430.573 254.286 430.681 254.025 430.682 253.752V107.957H447.3C447.573 107.956 447.834 107.847 448.027 107.654C448.22 107.461 448.328 107.2 448.329 106.927C448.329 106.361 447.866 105.897 447.3 105.897H429.653C429.087 105.897 428.624 106.361 428.624 106.927V253.752C428.624 254.318 429.087 254.782 429.653 254.782V254.782Z" fill="#9CC9D3"/>
<path d="M408.456 265.541H488.974C489.247 265.54 489.508 265.432 489.701 265.239C489.894 265.046 490.002 264.785 490.003 264.512C490.003 263.945 489.54 263.482 488.974 263.482H409.485V254.782H491.547V259.158C491.547 259.724 492.01 260.187 492.576 260.187C492.849 260.186 493.11 260.078 493.303 259.885C493.496 259.692 493.604 259.431 493.605 259.158V253.752C493.605 253.186 493.142 252.722 492.576 252.722H408.456C407.89 252.722 407.427 253.186 407.427 253.752V264.512C407.427 265.078 407.89 265.541 408.456 265.541ZM407.53 54.056C408.353 54.056 409.125 53.798 409.845 53.386L449.461 27.491C450.13 27.028 451.056 27.028 451.725 27.44L494.531 53.438C495.179 53.8435 495.928 54.0574 496.692 54.055H497.206C499.161 54.055 500.705 52.871 501.271 50.967C501.785 49.113 501.065 47.26 499.418 46.23L486.916 38.663C486.453 38.353 485.784 38.508 485.527 39.023C485.218 39.486 485.373 40.156 485.887 40.413L498.389 47.981C499.418 48.598 499.573 49.628 499.367 50.401C499.161 51.173 498.492 51.996 497.309 51.996H496.794C496.396 51.9972 496.005 51.8904 495.663 51.687L452.857 25.689C451.468 24.866 449.718 24.866 448.381 25.741L408.765 51.636C408.404 51.842 407.993 51.996 407.581 51.996C406.398 51.996 405.729 51.224 405.523 50.452C405.317 49.68 405.42 48.702 406.398 48.032L449.461 19.77C450.13 19.307 451.056 19.307 451.776 19.718L472.87 32.538C473.333 32.846 474.002 32.692 474.26 32.177C474.568 31.714 474.414 31.044 473.899 30.787L452.805 17.968C451.416 17.144 449.667 17.144 448.329 18.071L405.266 46.334C403.671 47.364 403.002 49.217 403.568 51.071C404.031 52.872 405.626 54.057 407.53 54.057V54.056ZM449.461 218.487C456.098 218.487 461.449 213.082 461.449 206.492C461.449 204.175 460.78 201.91 459.494 199.954C459.341 199.725 459.105 199.565 458.836 199.507C458.567 199.449 458.286 199.499 458.053 199.645C457.59 199.954 457.436 200.572 457.744 201.087C458.78 202.7 459.334 204.575 459.339 206.492C459.339 212.001 454.863 216.428 449.41 216.428C443.905 216.428 439.48 211.949 439.48 206.492C439.48 201.756 442.824 197.637 447.455 196.762C447.689 196.71 447.898 196.579 448.048 196.392C448.198 196.205 448.279 195.972 448.278 195.732V107.957H450.542V151.355C450.542 151.922 451.005 152.385 451.571 152.385C451.844 152.384 452.105 152.275 452.298 152.082C452.491 151.889 452.599 151.628 452.6 151.355V106.927C452.6 106.361 452.136 105.897 451.571 105.897H447.249C446.683 105.897 446.22 106.361 446.22 106.927V194.909C441.075 196.35 437.422 201.087 437.422 206.492C437.422 213.082 442.824 218.487 449.461 218.487V218.487Z" fill="#9CC9D3"/>
<path d="M451.622 176.736C451.895 176.735 452.156 176.626 452.349 176.433C452.542 176.24 452.65 175.979 452.651 175.706V160.777C452.651 160.21 452.188 159.747 451.622 159.747C451.056 159.747 450.593 160.21 450.593 160.777V175.706C450.593 176.272 451.056 176.736 451.622 176.736ZM454.812 197.946C455.172 197.946 455.532 197.74 455.687 197.431C455.944 196.917 455.789 196.299 455.275 196.041C454.4 195.578 453.526 195.166 452.6 194.909V190.172C452.6 189.606 452.137 189.143 451.571 189.143C451.005 189.143 450.542 189.606 450.542 190.172V195.732C450.542 196.247 450.902 196.659 451.365 196.762C452.393 196.967 453.382 197.332 454.297 197.843C454.452 197.895 454.657 197.946 454.812 197.946V197.946ZM441.281 69.7569H450.542C450.815 69.7561 451.076 69.6473 451.269 69.4543C451.462 69.2613 451.57 68.9997 451.571 68.7269V53.3359C451.571 52.7699 451.108 52.3059 450.542 52.3059C449.976 52.3059 449.513 52.7699 449.513 53.3359V67.6989H441.281C440.715 67.6989 440.252 68.1629 440.252 68.7289C440.252 69.2949 440.715 69.7589 441.281 69.7589V69.7569Z" fill="#9CC9D3"/>
<path d="M632.929 199.13C631.952 200.108 628.299 197.483 624.389 196.453C621.302 195.63 624.337 198.564 621.816 197.792C618.266 196.711 619.81 185.9 623.514 186.105C625.521 186.208 626.961 187.187 628.659 188.525C630.666 190.07 634.987 197.071 632.929 199.13V199.13Z" fill="#F5D1B2"/>
<path d="M653.972 211.022C650.731 209.838 632.724 199.079 628.196 195.681L629.688 192.18C632.724 195.321 641.213 199.388 646.615 201.035C648.519 201.601 652.583 202.785 654.744 202.991C660.249 203.558 668.687 182.09 668.995 181.575C672.597 169.117 684.842 167.572 683.864 178.538C683.247 185.539 675.941 193.313 670.848 199.697C668.79 202.271 661.124 213.648 653.972 211.022V211.022Z" fill="#F5D1B2"/>
<path d="M688.546 92.1C688.546 92.1 670.59 62.653 663.542 90.865C663.542 90.865 663.13 95.653 659.374 99.823C659.374 99.823 653.252 105.743 661.741 116.914C661.741 116.914 670.127 124.585 661.844 141.831C661.844 141.831 639.566 163.608 655.721 172.205C655.721 172.205 677.382 184.201 700.791 178.744C700.791 178.744 724.252 172.669 706.759 142.758C706.759 142.758 695.646 126.335 699.402 111.612C699.35 111.612 707.119 90.299 688.546 92.1V92.1Z" fill="#EB9B5B"/>
<path d="M664.005 160.879C664.005 165.873 668.121 169.992 673.111 169.992H682.99C687.98 169.992 692.096 165.873 692.096 160.879V101.985C692.096 96.991 687.98 92.873 682.99 92.873H673.111C668.121 92.873 664.005 96.991 664.005 101.985V160.879Z" fill="#F5D1B2"/>
<path d="M694.254 150.734C691.758 150.591 689.866 148.174 690.028 145.335C690.19 142.497 692.346 140.311 694.842 140.454C697.339 140.597 699.231 143.014 699.069 145.853C698.906 148.692 696.751 150.877 694.254 150.734ZM664.262 105.537L657.676 144.56C657.574 145.075 657.882 145.538 658.294 145.744C660.197 146.619 664.776 148.678 664.776 148.678L664.262 105.537Z" fill="#F5D1B2"/>
<path d="M673.5 133.911C672.904 133.911 672.42 133.012 672.42 131.903C672.42 130.794 672.904 129.896 673.5 129.896C674.097 129.896 674.581 130.794 674.581 131.903C674.581 133.012 674.097 133.911 673.5 133.911ZM656.111 129.432C655.514 129.432 655.03 128.533 655.03 127.424C655.03 126.315 655.514 125.417 656.111 125.417C656.707 125.417 657.191 126.315 657.191 127.424C657.191 128.533 656.707 129.432 656.111 129.432Z" fill="#283544"/>
<path d="M685.048 125.46L672.031 119.282C672.031 119.282 672.237 118.253 673.266 116.554C673.266 116.554 683.71 121.393 685.562 122.783C685.562 122.732 685.613 123.813 685.048 125.46V125.46ZM659.014 119.746C659.014 119.746 658.242 118.871 657.059 117.841C657.059 117.841 651.554 121.084 650.216 122.577C650.216 122.577 651.605 123.916 651.914 124.276C651.966 124.225 657.471 120.467 659.014 119.746Z" fill="#EB9B5B"/>
<path d="M674.118 131.697C675.147 131.697 675.558 131.028 675.61 130.977C675.661 130.925 675.61 130.822 675.558 130.771C675.507 130.719 675.404 130.771 675.353 130.822C675.353 130.874 674.992 131.388 674.169 131.388C674.066 131.388 674.015 131.44 674.015 131.543C673.963 131.646 674.015 131.697 674.118 131.697V131.697ZM655.39 127.218H655.545C655.647 127.218 655.699 127.115 655.699 127.012C655.699 126.91 655.596 126.858 655.493 126.858C654.979 126.91 654.824 126.395 654.824 126.292C654.824 126.189 654.721 126.137 654.618 126.189C654.516 126.189 654.464 126.292 654.516 126.395C654.516 126.704 654.824 127.218 655.39 127.218Z" fill="#283544"/>
<path d="M669.767 89.166C669.767 89.166 661.741 106.052 683.144 114.495C683.144 114.495 692.816 117.275 688.392 123.967C688.392 123.967 682.887 130.197 689.575 135.139C689.575 135.139 694.205 137.404 691.067 142.295C691.067 142.295 692.662 140.235 694.72 140.184L695.543 132.771V108.883L690.707 96.425L684.945 91.328L673.111 88.033" fill="#EB9B5B"/>
<path d="M672.854 150.532C672.545 151.561 673.523 155.268 673.677 156.864C674.449 165.307 683.144 150.686 683.401 149.657C683.71 148.627 681.6 149.708 676.198 149.502C673.266 149.399 673.163 149.502 672.854 150.532V150.532Z" fill="#2B3542"/>
<path d="M550.559 217.2C554.418 219.259 565.119 220.598 573.454 219.311L572.476 214.678C570.316 214.781 562.547 217.921 554.058 210.919C548.913 206.646 539.909 175.552 540.115 174.779C534.352 170.97 536.153 182.09 532.809 176.427C532.757 176.53 532.706 176.581 532.655 176.684C530.802 180.185 529.568 183.737 528.95 187.238C528.384 190.739 528.59 194.136 529.619 197.431C530.648 200.726 531.934 190.893 534.867 193.828C537.748 196.814 542.224 212.721 550.559 217.2Z" fill="#C56324"/>
<path d="M596.246 212.258C596.452 216.428 580.811 219.62 576.747 220.083C565.634 221.422 558.791 216.531 564.81 216.376C573.042 216.222 571.859 207.419 575.975 207.264C577.261 207.213 577.879 207.11 580.554 207.573C585.236 208.448 583.589 210.508 584.618 210.611C589.969 211.331 596.143 209.89 596.246 212.258V212.258Z" fill="#F5D1B2"/>
<path d="M565.222 214.266C561.826 214.317 555.601 211.589 552.051 206.75C549.89 203.815 546.237 193.519 543.459 184.921C541.35 178.332 541.247 177.457 539.446 172.257C535.587 162.836 536.102 182.038 532.758 176.375C532.706 176.478 532.655 176.53 532.603 176.633C530.751 180.134 529.516 183.686 528.899 187.187C528.333 190.687 528.539 194.085 529.568 197.38C530.597 200.675 531.883 190.79 534.816 193.776C537.697 196.762 542.121 212.67 550.456 217.097C553.389 218.642 557.813 220.341 564.553 220.289L565.222 214.266V214.266Z" fill="#FED702"/>
<path d="M535.69 169.271L538.057 174.883C538.057 174.883 538.88 197.483 530.134 195.372C521.387 193.261 511.766 176.993 511.766 176.993L505.026 170.146L521.336 164.895L535.69 169.271V169.271ZM523.239 258.076H512.692C511.458 281.243 513.773 302.762 513.773 327.01C513.413 329.893 508.422 331.901 506.621 332.158C502.711 332.673 500.602 333.754 500.602 336.483C500.602 339.211 503.277 338.954 506.57 339.057C509.451 339.108 514.236 339.005 517.117 339.057C520.255 339.108 520.821 338.439 521.027 335.916C520.924 309.661 521.593 283.817 523.239 258.076V258.076ZM539.137 332.107C537.337 331.849 532.346 329.893 531.986 326.959C531.986 302.402 534.044 281.037 535.69 258.025H524.731C523.548 283.148 524.834 309.815 524.731 335.762C524.937 338.285 525.503 338.954 528.642 338.902C531.523 338.851 536.359 338.954 539.24 338.902C542.481 338.851 545.208 339.057 545.208 336.328C545.157 333.703 543.047 332.622 539.137 332.107V332.107Z" fill="#F5D1B2"/>
<path d="M524.423 330.151C524.423 330.151 526.121 330.202 528.59 329.687C531.06 329.172 532.603 327.988 532.603 327.988C534.044 330.048 537.645 331.952 539.086 332.107C542.996 332.622 545.105 333.703 545.105 336.431C545.105 339.16 542.43 338.902 539.137 339.005C536.256 339.057 530.905 338.954 528.024 339.005C524.886 339.057 524.32 338.388 524.114 335.865C524.166 335.813 524.423 332.622 524.423 330.151V330.151ZM521.284 330.151C521.284 330.151 519.587 330.202 517.117 329.687C514.647 329.172 513.104 327.988 513.104 327.988C511.663 330.048 508.062 331.952 506.621 332.107C502.711 332.622 500.602 333.703 500.602 336.431C500.602 339.16 503.277 338.902 506.57 339.005C509.451 339.057 514.802 338.954 517.683 339.005C520.821 339.057 521.387 338.388 521.593 335.865C521.542 335.813 521.284 332.622 521.284 330.151Z" fill="#243443"/>
<path d="M534.789 169C534.478 176.912 535.204 181.297 525.76 181.039C517.976 180.868 516.626 171.365 508.22 169.301C508.22 169.301 505.417 169.429 501.318 170.934C499.138 171.751 499.19 175.02 499.501 178.632C501.006 195.359 509.569 222.965 503.705 226.835C489.383 236.252 502.46 296.323 502.46 296.323L543.559 298C543.559 298 540.289 232.769 544.13 212.516C547.97 192.263 537.851 169.773 537.851 169.773L534.789 169V169Z" fill="#9CC9D3"/>
<path d="M521.5 129C508.521 129 498 118.479 498 105.5C498 92.5213 508.521 82 521.5 82C534.479 82 545 92.5213 545 105.5C545 118.479 534.479 129 521.5 129Z" fill="#B45B13"/>
<path d="M537.028 161.343C537.028 165.976 533.221 169.786 528.59 169.786H518.146C513.516 169.786 509.708 165.976 509.708 161.343V103.272C509.708 98.6381 513.516 94.8291 518.146 94.8291H528.59C533.221 94.8291 537.028 98.6391 537.028 103.272V161.343Z" fill="#F5D1B2"/>
<path d="M502.966 146.294C502.807 143.512 504.633 141.145 507.044 141.007C509.456 140.869 511.539 143.012 511.698 145.794C511.858 148.576 510.032 150.943 507.62 151.081C505.209 151.219 503.125 149.076 502.966 146.294ZM536.771 107.133L543.15 145.075C543.253 145.538 542.996 146.053 542.533 146.259C540.681 147.082 536.205 149.142 536.205 149.142L536.771 107.133V107.133Z" fill="#F5D1B2"/>
<path d="M523.548 158.923C523.702 158.923 523.857 158.82 523.857 158.666C523.908 158.511 523.754 158.305 523.6 158.305C520.05 157.739 519.329 154.702 519.278 154.599C519.226 154.444 519.072 154.341 518.866 154.341C518.712 154.393 518.557 154.547 518.609 154.753C518.609 154.805 519.484 158.305 523.445 158.975C523.497 158.923 523.548 158.923 523.548 158.923V158.923ZM526.841 136.632C526.244 136.632 525.76 135.756 525.76 134.675C525.76 133.595 526.244 132.719 526.841 132.719C527.438 132.719 527.921 133.595 527.921 134.675C527.921 135.756 527.438 136.632 526.841 136.632ZM543.768 132.307C543.171 132.307 542.687 131.431 542.687 130.351C542.687 129.271 543.171 128.395 543.768 128.395C544.364 128.395 544.848 129.271 544.848 130.351C544.848 131.431 544.364 132.307 543.768 132.307Z" fill="#1A222A"/>
<path d="M526.224 134.521C526.326 134.521 526.378 134.47 526.378 134.367C526.378 134.264 526.326 134.212 526.224 134.212C525.4 134.212 525.092 133.697 525.092 133.697C525.04 133.646 524.937 133.594 524.886 133.646C524.834 133.697 524.783 133.8 524.834 133.852C524.834 133.852 525.246 134.521 526.224 134.521V134.521ZM544.488 130.145C545.054 130.145 545.311 129.63 545.363 129.373C545.363 129.27 545.311 129.218 545.26 129.167C545.157 129.167 545.105 129.218 545.054 129.27C545.054 129.321 544.9 129.888 544.385 129.785C544.282 129.785 544.231 129.836 544.179 129.939C544.179 130.042 544.231 130.094 544.334 130.145H544.488Z" fill="#1A222A"/>
<path d="M516.602 126.49L529.259 120.467C529.259 120.467 529.053 119.488 528.076 117.841C528.076 117.841 517.889 122.577 516.088 123.864C516.088 123.864 516.036 124.894 516.602 126.49ZM541.864 120.93C541.864 120.93 542.636 120.106 543.716 119.077C543.716 119.077 549.067 122.268 550.353 123.658C550.353 123.658 548.964 124.945 548.707 125.306C548.758 125.306 543.408 121.651 541.864 120.93Z" fill="#432611"/>
<path d="M537.954 114.392C537.954 114.392 535.021 105.691 524.063 107.957C521.799 108.42 517.528 110.325 515.779 116.451C515.779 116.451 512.486 137.764 509.811 141.934C509.811 141.934 497.978 110.119 505.541 98.2781C505.541 98.2781 522.416 74.7001 538.674 94.8281C538.623 94.8281 547.884 118.974 537.954 114.392V114.392Z" fill="#B45B13"/>
<path d="M508.113 150.274C507.785 150.274 507.471 150.144 507.239 149.912C507.007 149.68 506.877 149.365 506.877 149.038C506.877 148.71 507.007 148.395 507.239 148.163C507.471 147.931 507.785 147.801 508.113 147.801C508.441 147.801 508.755 147.931 508.987 148.163C509.219 148.395 509.349 148.71 509.349 149.038C509.349 149.365 509.219 149.68 508.987 149.912C508.755 150.144 508.441 150.274 508.113 150.274Z" fill="#FCF0E5"/>
<path d="M517.168 152.334C517.168 152.334 520.307 153.981 523.497 154.135C526.635 154.29 531.471 153.827 531.471 153.827L525.76 154.856L524.834 159.953C524.834 159.953 521.85 161.909 519.844 159.335C517.837 156.761 517.168 152.334 517.168 152.334V152.334Z" fill="#1A222A"/>
<path d="M692.25 246.648C689.215 246.339 671.362 243.507 672.082 240.521C668.79 255.091 661.638 274.911 662.873 287.833C664.313 303.123 669.716 313.265 669.716 329.996C669.355 332.879 670.642 338.336 673.523 338.336C676.661 338.388 676.97 336.122 676.97 336.122C676.919 319.031 674.346 311.617 673.934 294.577C673.523 279.287 693.845 260.908 692.25 246.648V246.648Z" fill="#015ABC"/>
<path d="M700.842 241.448C697.858 242.375 677.227 237.793 674.295 238.719C680.52 251.538 674.5 279.802 680.829 291.488C688.289 305.285 699.402 312.235 706.09 327.937C706.913 330.82 710.103 337.049 712.83 335.916C715.763 334.732 714.888 330.974 714.94 330.974C708.045 314.963 701.203 309.3 694 293.444C687.414 279.184 708.869 255.193 700.842 241.448V241.448Z" fill="#015ABC"/>
<path d="M669.716 249.942C666.474 244.485 669.973 242.323 669.973 242.323C669.973 242.323 677.279 229.35 667.966 214.42C654.95 193.519 669.304 182.45 672.545 175.294C673.06 174.162 674.655 170.249 675.581 170.918C679.954 174.007 679.748 171.845 682.938 174.934C683.761 175.758 687.157 170.918 688.083 171.897C691.427 175.397 696.881 179.928 696.263 186.002C692.405 223.841 707.891 242.941 705.37 249.016C702.849 255.091 672.957 255.348 669.716 249.942V249.942Z" fill="#9CC9D3"/>
<path d="M691.684 155.217L680.005 162.887C673.111 162.939 672.751 164.38 673.883 171.227C675.015 178.074 689.009 176.942 694.771 176.015C694.771 176.015 689.729 172.205 689.318 165.513C688.855 158.923 691.684 155.217 691.684 155.217Z" fill="#F5D1B2"/>
<path d="M674.861 246.184C674.861 246.184 675.169 232.49 677.69 216.119C680.057 200.623 675.169 182.347 676.764 179.001C678.513 175.346 683.761 168.447 690.758 171.691C697.807 174.934 701.974 195.218 701.048 214.678C700.122 234.138 716.483 242.22 702.849 246.956C689.266 251.693 674.861 246.184 674.861 246.184V246.184Z" fill="#E37A2A"/>
<path d="M633.936 158.532C633.742 155.87 631.426 153.869 628.763 154.063L590.532 156.852C587.87 157.046 585.869 159.362 586.063 162.025L587.456 181.116L635.329 177.624L633.936 158.532Z" fill="#015ABC"/>
<path d="M635.329 177.624L587.456 181.116L588.848 200.207C589.043 202.87 591.359 204.871 594.021 204.677L632.252 201.888C634.914 201.694 636.915 199.378 636.721 196.715L635.329 177.624Z" fill="#FED702"/>
<path fill-rule="evenodd" clip-rule="evenodd" d="M612.775 196.329C603.336 197.018 595.126 189.924 594.437 180.486C593.749 171.047 600.842 162.837 610.281 162.148C619.72 161.46 627.93 168.553 628.619 177.992C629.307 187.431 622.214 195.641 612.775 196.329ZM612.887 197.872C602.596 198.623 593.645 190.889 592.895 180.598C592.144 170.307 599.878 161.356 610.169 160.606C620.46 159.855 629.411 167.589 630.161 177.88C630.912 188.17 623.178 197.121 612.887 197.872Z" fill="#015ABC"/>
<path fill-rule="evenodd" clip-rule="evenodd" d="M592.904 180.719C592.901 180.679 592.898 180.638 592.895 180.598C592.144 170.307 599.878 161.356 610.169 160.606C620.46 159.855 629.411 167.589 630.161 177.88C630.164 177.92 630.167 177.96 630.17 178L628.627 178.113C628.624 178.073 628.621 178.032 628.619 177.992C627.93 168.553 619.72 161.46 610.281 162.148C600.842 162.837 593.749 171.047 594.437 180.486C594.44 180.526 594.443 180.566 594.447 180.606L592.904 180.719Z" fill="#FED702"/>
<path d="M607.631 166.297C608.221 166.253 608.811 166.377 609.333 166.655C609.855 166.934 610.286 167.355 610.577 167.87C610.828 167.202 611.3 166.64 611.915 166.278C612.53 165.916 613.25 165.777 613.956 165.882C614.662 165.988 615.31 166.332 615.792 166.858C616.274 167.384 616.561 168.06 616.604 168.772C616.842 172.033 611.226 176.765 611.226 176.765C611.226 176.765 604.983 172.898 604.745 169.637C604.685 168.811 604.955 167.996 605.496 167.369C606.037 166.743 606.805 166.357 607.631 166.297V166.297Z" fill="#FED702"/>
<path fill-rule="evenodd" clip-rule="evenodd" d="M610.586 167.984L610.623 167.887C610.869 167.23 611.334 166.676 611.939 166.32C612.545 165.964 613.254 165.826 613.949 165.93C614.643 166.034 615.281 166.373 615.756 166.891C616.231 167.409 616.513 168.074 616.556 168.775L616.556 168.775C616.615 169.577 616.313 170.475 615.822 171.373C615.331 172.272 614.654 173.166 613.968 173.96C613.282 174.753 612.589 175.446 612.067 175.939C611.806 176.186 611.588 176.383 611.435 176.519C611.359 176.587 611.299 176.639 611.258 176.674C611.243 176.686 611.231 176.697 611.222 176.705C611.211 176.698 611.198 176.69 611.182 176.68C611.136 176.651 611.069 176.608 610.984 176.552C610.813 176.44 610.569 176.276 610.275 176.07C609.687 175.657 608.9 175.073 608.106 174.387C607.312 173.701 606.513 172.915 605.897 172.098C605.28 171.279 604.852 170.435 604.793 169.634C604.734 168.821 605 168.018 605.533 167.401C606.066 166.784 606.822 166.405 607.634 166.345L607.631 166.297L607.635 166.345C608.215 166.301 608.796 166.424 609.31 166.698C609.824 166.972 610.249 167.387 610.535 167.894L610.586 167.984ZM611.226 176.765C611.226 176.765 616.842 172.033 616.604 168.772C616.561 168.06 616.274 167.384 615.792 166.858C615.31 166.332 614.662 165.988 613.956 165.882C613.25 165.777 612.53 165.916 611.915 166.278C611.318 166.63 610.855 167.17 610.6 167.812C610.592 167.832 610.585 167.851 610.577 167.87C610.567 167.852 610.557 167.834 610.546 167.817C610.256 167.326 609.836 166.924 609.333 166.655C608.811 166.377 608.221 166.253 607.631 166.297C606.805 166.357 606.037 166.743 605.496 167.369C604.955 167.996 604.685 168.811 604.745 169.637C604.983 172.898 611.226 176.765 611.226 176.765Z" fill="#FED702"/>
<path d="M601.599 185.193C601.75 184.904 602.073 184.74 602.558 184.704C603.843 184.61 606.207 185.425 606.307 185.459C606.477 185.518 606.578 185.695 606.543 185.873C606.472 186.23 606.58 186.594 606.846 186.897C607.205 187.305 608.175 187.962 610.642 187.782C610.642 187.782 610.642 187.782 610.643 187.782C610.745 187.775 610.85 187.766 610.956 187.755C611.496 187.703 611.91 187.573 612.482 187.393C612.872 187.27 613.332 187.125 613.95 186.965C613.622 186.864 613.092 186.794 612.271 186.853C611.845 186.884 611.365 186.949 610.843 187.044C610.58 187.092 610.323 187.125 610.078 187.143C608.331 187.271 607.364 186.601 607.311 185.875C607.288 185.551 607.45 185.24 607.756 185.024C608.142 184.752 608.737 184.628 609.481 184.667C609.722 184.679 609.98 184.676 610.247 184.657C611.364 184.575 612.541 184.228 613.681 183.892C614.773 183.569 615.806 183.264 616.753 183.195C616.981 183.179 617.2 183.177 617.403 183.189C619.039 183.289 620.01 183.702 621.134 184.179C622.525 184.771 624.256 185.507 628.04 185.994C628.149 186.009 628.245 186.072 628.303 186.166C628.36 186.26 628.371 186.375 628.333 186.479C628.27 186.653 626.754 190.758 625.105 191.801C625.053 191.833 624.996 191.851 624.938 191.855C624.871 191.86 624.802 191.846 624.74 191.813C624.693 191.787 619.784 189.134 617.134 189.549C615.697 189.772 614.834 190.047 614.14 190.268C613.814 190.371 613.534 190.46 613.256 190.523L612.89 190.608C612.36 190.733 611.902 190.84 611.404 190.876C610.168 190.967 608.826 190.575 606.451 189.432C605.782 189.11 605.188 188.833 604.665 188.59C602.598 187.627 601.655 187.188 601.402 186.439C601.242 185.966 601.437 185.502 601.599 185.193V185.193Z" fill="#015ABC"/>
<path d="M605.302 193.216L601.603 190.02L598.407 193.719L602.106 196.915L605.302 193.216Z" fill="#FED702"/>
<path fill-rule="evenodd" clip-rule="evenodd" d="M593.843 193.591L600.254 193.123L600.138 191.532L593.726 192L593.843 193.591Z" fill="#015ABC"/>
<path fill-rule="evenodd" clip-rule="evenodd" d="M598.196 186.827L598.664 193.239L600.254 193.123L599.787 186.711L598.196 186.827Z" fill="#015ABC"/>
<path d="M617.747 165.167L621.446 168.363L624.642 164.664L620.943 161.467L617.747 165.167Z" fill="#015ABC"/>
<path fill-rule="evenodd" clip-rule="evenodd" d="M629.206 164.792L622.795 165.259L622.911 166.85L629.323 166.383L629.206 164.792Z" fill="#FED702"/>
<path fill-rule="evenodd" clip-rule="evenodd" d="M624.853 171.555L624.385 165.143L622.795 165.259L623.262 171.671L624.853 171.555Z" fill="#FED702"/>
<path d="M651.194 200.984C648.673 198.615 636.274 181.627 633.444 176.736L636.171 174.11C637.714 178.177 643.94 185.282 648.261 188.885C649.753 190.172 653.046 192.798 655.001 193.879C659.837 196.556 675.992 180.134 676.456 179.722C684.636 169.683 696.521 173.029 691.324 182.708C688.032 188.885 678.308 193.21 671.105 197.122C668.275 198.718 656.802 206.183 651.194 200.984V200.984Z" fill="#F5D1B2"/>
<path d="M636.119 177.92C635.142 178.898 631.489 176.272 627.579 175.243C624.492 174.419 627.527 177.354 625.006 176.581C621.456 175.5 623 164.689 626.704 164.895C628.71 164.998 630.151 165.976 631.849 167.315C633.855 168.859 638.177 175.861 636.119 177.92V177.92Z" fill="#F5D1B2"/>
<path d="M714.013 328.091C714.013 328.091 713.499 328.606 710.927 328.915C708.663 329.172 708.2 328.555 706.913 328.709C704.855 328.864 704.084 332.725 700.945 334.629C697.447 336.74 694.36 336.792 695.286 339.469C696.161 342.146 699.659 341.682 703.415 341.373C706.348 341.116 711.184 338.645 713.962 337.77C717.049 336.792 717.769 335.814 717.152 333.291C717.1 333.239 715.866 330.048 714.013 328.091ZM677.021 332.622C677.021 332.622 676.095 332.827 673.574 332.261C671.311 331.798 671.105 331.026 669.818 330.82C667.812 330.356 665.857 333.703 662.307 334.526C658.345 335.453 656.133 336.174 656.133 338.954C656.133 341.734 662.358 341.476 662.358 341.476H676.713C676.713 341.476 678.102 341.579 678.102 339.263C678.102 339.314 678.205 335.093 677.021 332.622V332.622Z" fill="#283544"/>
<path d="M562.392 211.228C562.598 215.398 546.958 218.59 542.893 219.054C531.78 220.392 524.937 215.501 530.957 215.347C539.189 215.192 538.005 206.389 542.121 206.235C543.408 206.183 544.025 206.08 546.7 206.543C551.382 207.419 549.736 209.478 550.765 209.581C556.116 210.302 562.289 208.86 562.392 211.228V211.228Z" fill="#F5D1B2"/>
<path d="M507.033 219.002C510.377 219.826 528.333 220.65 534.661 218.899L533.838 213.957C531.42 215.295 525.452 215.553 520.101 213.905C518.249 213.339 514.236 212.052 512.281 211.022C507.445 208.448 511.972 187.238 512.075 186.672C514.596 179.361 503.226 164.483 498.955 174.574C495.971 181.575 499.213 193.004 500.19 200.005C500.653 203.146 499.676 217.2 507.033 219.002Z" fill="#FED702"/>
<path d="M901.598 144.766H966.475C966.748 144.765 967.009 144.656 967.202 144.463C967.395 144.27 967.503 144.009 967.504 143.736V135.962C967.504 135.396 967.041 134.933 966.475 134.933H852.155C851.589 134.933 851.126 135.396 851.126 135.962C851.126 136.529 851.589 136.992 852.155 136.992H965.446V142.707H901.598C901.032 142.707 900.569 143.17 900.569 143.736C900.569 144.302 901.032 144.766 901.598 144.766Z" fill="#9CC9D3"/>
<path d="M893.314 136.683H908.337C908.749 136.683 909.161 136.426 909.315 136.014C909.624 135.139 917.032 114.855 917.032 105.64C917.032 97.66 911.219 95.19 908.955 94.52C909.161 94.108 909.161 93.696 909.161 93.387C909.125 93.0987 909.028 92.8213 908.878 92.5729C908.727 92.3246 908.525 92.1109 908.286 91.946C908.132 91.843 907.926 91.74 907.669 91.74H903.09C903.466 91.1447 903.861 90.5611 904.273 89.99C905.251 90.813 906.588 90.865 907.617 90.659C907.863 91.1309 908.238 91.5234 908.698 91.791C909.624 92.255 910.756 92.151 912.093 91.431C912.916 90.968 913.482 90.247 913.688 89.371C913.894 88.548 913.74 87.57 913.431 86.591C914.46 87.724 915.798 88.651 917.753 88.342C919.142 88.136 919.914 87.415 920.274 86.849C920.943 85.819 920.891 84.635 920.84 83.915C921.56 83.091 922.177 81.495 921.097 79.127C920.737 78.303 920.068 77.686 919.245 77.428C918.576 77.222 917.856 77.222 917.084 77.325C917.392 76.9143 917.603 76.439 917.701 75.935C917.856 75.163 917.701 74.391 917.187 73.721C915.592 71.559 913.328 71.559 912.248 71.662C911.424 70.89 909.572 69.5 907.977 70.632C907.36 71.096 907 71.972 906.845 73.362C906.743 74.391 906.794 75.678 907 77.016C905.611 75.472 904.17 74.442 902.627 74.802C901.34 75.112 900.723 75.832 900.414 76.398C899.848 77.48 900.003 78.715 900.157 79.384C899.9 79.848 899.54 80.517 899.437 81.289C899.334 81.186 899.179 81.083 899.025 81.032C898.15 80.517 896.967 80.466 895.835 80.569C897.019 79.281 898.15 77.686 898.099 76.192C898.048 75.523 897.79 74.648 896.71 73.979C895.475 73.259 894.498 73.361 893.932 73.516C893.366 73.67 892.954 73.979 892.645 74.288C891.411 73.773 889.764 73.618 888.632 74.906C886.935 76.862 888.581 78.972 890.021 80.466C888.375 80.26 886.523 80.311 885.442 80.98C884.619 81.444 884.208 82.164 884.208 82.988C884.208 84.944 885.34 85.614 885.957 85.871C886.163 86.541 886.729 87.879 888.221 88.085C888.941 88.188 889.713 87.879 890.639 87.21C891.361 86.6493 892.002 85.9906 892.543 85.253C892.8 86.437 893.211 87.518 893.932 88.085C894.36 88.4049 894.893 88.552 895.424 88.497C895.835 89.217 896.401 90.35 896.967 91.637H894.137C893.932 91.637 893.726 91.688 893.52 91.843C893.417 91.946 892.748 92.409 892.645 93.284C892.594 93.594 892.645 93.954 892.851 94.417C890.536 95.087 884.774 97.557 884.774 105.537C884.774 114.752 892.182 135.087 892.491 135.911C892.491 136.374 892.903 136.683 893.314 136.683V136.683ZM907.617 134.624H894.035C892.748 130.969 886.677 113.568 886.677 105.588C886.677 97.454 893.674 96.322 893.932 96.27C894.114 96.2329 894.288 96.1631 894.446 96.064C895.166 95.447 895.115 94.468 894.755 93.851C894.755 93.851 894.755 93.799 894.703 93.799H898.356C898.459 93.799 898.511 93.799 898.614 93.748C898.716 93.748 898.768 93.799 898.871 93.799H900.466C900.62 93.799 900.723 93.799 900.826 93.748C900.929 93.799 901.083 93.799 901.186 93.799H906.897L906.845 93.851C906.485 94.52 906.434 95.447 907.154 96.064C907.308 96.167 907.463 96.27 907.669 96.27C907.977 96.322 914.923 97.454 914.923 105.588C914.974 113.568 908.955 130.969 907.617 134.624V134.624ZM899.9 91.74H899.54C898.871 90.041 898.151 88.6 897.43 87.415C897.79 86.952 897.945 86.437 898.048 85.974C898.614 85.871 899.282 85.562 899.745 84.996C900 84.6874 900.16 84.3122 900.208 83.915C901.495 84.945 902.935 84.945 904.376 84.532C903.604 85.356 902.987 86.334 903.038 87.415C902.318 88.291 901.083 89.887 899.9 91.74ZM909.418 83.297C911.064 85.717 911.887 87.776 911.63 88.908C911.579 89.218 911.373 89.475 911.064 89.629C910.087 90.144 909.727 90.041 909.624 89.989C909.366 89.835 909.264 89.423 909.264 89.32C909.212 89.011 909.058 88.703 908.801 88.548C908.543 88.394 908.183 88.342 907.874 88.445C907.772 88.497 905.868 89.217 905.25 87.982C904.582 86.643 906.382 85.305 908.44 83.915C908.787 83.7448 909.115 83.5376 909.418 83.297V83.297ZM896.093 85.099C896.144 85.459 896.093 86.334 895.166 86.489C894.961 86.437 894.498 85.922 894.189 82.885C895.578 82.576 897.276 82.422 897.996 82.834C898.15 82.937 898.202 82.988 898.202 83.04C898.253 83.194 898.305 83.503 898.202 83.657C898.048 83.863 897.482 83.967 897.173 83.967C896.864 83.967 896.607 84.069 896.401 84.275C896.144 84.532 896.041 84.841 896.093 85.099V85.099ZM917.907 79.229C918.113 79.229 918.37 79.281 918.524 79.333C918.833 79.436 919.039 79.642 919.193 79.951C920.068 81.907 919.245 82.525 919.142 82.628C918.73 82.834 918.576 83.348 918.679 83.76C918.782 84.07 918.936 85.099 918.524 85.717C918.319 86.025 917.958 86.231 917.444 86.283C915.952 86.489 915.18 85.563 913.945 83.966C913.328 83.143 912.711 82.267 911.887 81.65C913.431 80.774 916.209 79.23 917.907 79.23V79.229ZM891.411 82.937C890.793 84.533 888.993 86.077 888.427 86.128C888.118 86.077 887.912 85.562 887.758 85.098L887.603 84.635C887.398 84.275 887.037 84.172 886.832 84.069C886.471 83.966 886.214 83.863 886.214 82.989C886.214 82.937 886.214 82.885 886.42 82.782C887.398 82.267 889.97 82.473 891.411 82.937V82.937ZM907.617 80.929C907.257 81.083 906.897 81.289 906.485 81.444C904.324 82.474 902.627 83.194 901.495 82.267C901.186 82.01 901.598 80.877 902.061 80.157C902.266 79.899 902.266 79.539 902.164 79.23C902.061 78.921 901.855 77.994 902.164 77.428C902.215 77.325 902.421 77.016 903.09 76.81C904.016 76.604 905.765 78.715 907.051 80.311C907.257 80.517 907.463 80.723 907.617 80.929V80.929ZM894.755 75.523C895.012 75.523 895.321 75.626 895.681 75.833C896.041 76.038 896.041 76.193 896.041 76.347C896.093 77.428 894.189 79.436 892.954 80.569C892.748 80.311 892.44 80.054 892.131 79.796C890.433 78.149 889.507 77.068 890.124 76.398C890.793 75.678 892.388 76.604 892.388 76.604C892.645 76.759 892.954 76.81 893.211 76.707C893.469 76.604 893.726 76.399 893.829 76.141C893.829 76.141 894.086 75.678 894.498 75.575C894.549 75.523 894.652 75.523 894.755 75.523V75.523ZM912.968 73.619C913.688 73.619 914.769 73.824 915.489 74.854C915.695 75.111 915.695 75.266 915.643 75.42C915.54 75.935 914.872 76.862 912.402 78.303C912.248 78.355 912.196 78.458 912.093 78.458C911.99 78.509 911.733 78.664 911.476 78.767C910.858 79.076 910.293 79.333 909.829 79.642C908.749 77.377 908.595 73.001 909.161 72.229C909.521 72.074 910.498 72.692 911.116 73.361C911.373 73.67 911.785 73.773 912.145 73.67C912.196 73.721 912.505 73.618 912.968 73.618V73.619Z" fill="#9CC9D3"/>
</svg>
