<svg width="71" height="28" viewBox="0 0 71 28" fill="none" xmlns="http://www.w3.org/2000/svg">
<path d="M22.8059 25.2674V27.9056H20.486V15.6428H22.8059V22.0785L26.1384 18.4728H28.9554L25.3098 22.4913L28.9554 27.9056H26.3226L23.7817 24.1891L22.8059 25.2674Z" fill="#051432"/>
<path d="M36.895 26.67C35.9681 27.5567 34.8542 28.0001 33.5533 28C32.2524 28 31.1478 27.5598 30.2394 26.6794C29.3309 25.7992 28.8767 24.6421 28.8769 23.2081C28.8769 21.762 29.3464 20.5954 30.2854 19.7085C31.2244 18.8216 32.3383 18.3782 33.6271 18.3784C34.9159 18.3784 36.0145 18.8186 36.9228 19.699C37.8312 20.5794 38.2853 21.7365 38.2853 23.1704C38.2852 24.617 37.8217 25.7835 36.895 26.67ZM31.9423 25.0569C32.3778 25.56 32.9393 25.8116 33.6269 25.8115C34.3145 25.8114 34.8607 25.563 35.2655 25.0663C35.6705 24.5696 35.873 23.9439 35.873 23.1891C35.873 22.4344 35.6705 21.8087 35.2655 21.312C34.8606 20.8153 34.3144 20.5668 33.6269 20.5667C32.9395 20.5666 32.3779 20.8182 31.9423 21.3214C31.5064 21.8246 31.2885 22.4471 31.2886 23.1891C31.2887 23.9311 31.5066 24.5537 31.9423 25.0569Z" fill="#051432"/>
<path d="M44.3423 18.3784C45.5328 18.3784 46.5454 18.8312 47.3803 19.7368C48.2152 20.6424 48.6326 21.7932 48.6323 23.1892C48.6323 24.5853 48.215 25.7361 47.3803 26.6417C46.5457 27.5473 45.533 28 44.3423 28C43.3726 28 42.5931 27.6667 42.004 27.0001H41.7278L41.4701 27.9056H39.6657V15.6428H41.9671V19.3971C42.5565 18.718 43.3482 18.3784 44.3423 18.3784ZM42.5196 25.0097C42.8878 25.4564 43.3787 25.6796 43.9925 25.6795C44.2862 25.6838 44.5776 25.6276 44.8497 25.5141C45.1217 25.4007 45.3687 25.2324 45.5759 25.0192C46.0178 24.5791 46.2387 23.9691 46.2387 23.1892C46.2387 22.4093 46.0178 21.7993 45.5759 21.3592C45.3686 21.1461 45.1216 20.9778 44.8496 20.8644C44.5776 20.751 44.2861 20.6947 43.9925 20.6989C43.3786 20.6989 42.8876 20.9221 42.5196 21.3686C42.1515 21.8151 41.9674 22.422 41.9671 23.1892C41.9671 23.9565 42.1512 24.5634 42.5196 25.0097Z" fill="#051432"/>
<path d="M57.4305 24.7362C57.4305 25.2521 57.5195 25.6074 57.6974 25.8021C57.8754 25.9968 58.1485 26.0943 58.5168 26.0946V27.9057H57.9645C56.8472 27.9057 56.1353 27.5032 55.8287 26.6983C55.2148 27.5662 54.2451 28.0001 52.9197 28C51.8762 28 51.0476 27.7485 50.434 27.2454C49.8205 26.7423 49.5136 26.0631 49.5135 25.2079C49.5066 24.7721 49.6046 24.3412 49.7988 23.9533C49.9875 23.5839 50.2707 23.2742 50.6182 23.0572C50.956 22.8404 51.31 22.6511 51.6769 22.4912C52.0883 22.3232 52.5179 22.206 52.9564 22.1422C53.4597 22.0607 53.8586 22.0072 54.1532 21.9818C54.4478 21.9564 54.7977 21.9312 55.2027 21.9064C55.1659 20.913 54.6442 20.4162 53.6377 20.4159C53.42 20.4122 53.203 20.4408 52.9933 20.5009C52.8445 20.5401 52.704 20.6072 52.5791 20.6989C52.4947 20.7662 52.4202 20.8457 52.3581 20.9348C52.3106 20.9994 52.2762 21.0731 52.2568 21.1515L52.2384 21.227H49.9369C50.0227 20.3718 50.394 19.6832 51.0508 19.1611C51.7077 18.6391 52.5884 18.3782 53.6929 18.3784C54.8464 18.3784 55.7578 18.6928 56.4271 19.3217C57.0965 19.9506 57.4309 20.919 57.4305 22.2271L57.4305 24.7362ZM51.8331 25.1324C51.8331 25.5852 52.0909 25.8745 52.6064 26.0003C53.2077 26.1512 53.7785 26.0254 54.3187 25.623C54.8463 25.2332 55.1286 24.6735 55.1657 23.9438V23.7552C54.8098 23.793 54.5306 23.8276 54.3281 23.859C54.1256 23.8903 53.8739 23.9312 53.5732 23.9816C53.3326 24.0172 53.0954 24.074 52.8643 24.1514C52.6856 24.2173 52.5105 24.2929 52.3396 24.3778C52.1845 24.4465 52.0508 24.5574 51.9529 24.6985C51.872 24.8278 51.8303 24.9788 51.8331 25.1324Z" fill="#051432"/>
<path d="M59.8973 15.6428H62.2909V27.9056H59.8973V15.6428Z" fill="#051432"/>
<path d="M70.1159 25.5285L71 27.2077C70.9186 27.2884 70.8325 27.3639 70.7422 27.434C70.6318 27.5222 70.3863 27.6385 70.0057 27.783C69.6226 27.9279 69.2173 28.0013 68.809 27.9998C67.9004 27.9998 67.1241 27.7105 66.4799 27.132C65.8357 26.5534 65.5135 25.7988 65.5132 24.868V20.4914H63.6718V18.6425H64.5924C64.9114 18.6425 65.1661 18.5419 65.3565 18.3407C65.5469 18.1395 65.642 17.869 65.6418 17.5293V15.6428H67.8697V18.4727H70.1895V20.4914H67.8697V24.7173C67.8676 24.8681 67.8969 25.0176 67.9557 25.1558C68.0144 25.2941 68.1012 25.4179 68.2103 25.5191C68.3219 25.6279 68.4534 25.713 68.5972 25.7697C68.741 25.8263 68.8943 25.8534 69.0483 25.8493C69.2202 25.8472 69.3909 25.8186 69.5546 25.7644C69.6965 25.722 69.835 25.6684 69.9689 25.6041L70.1159 25.5285Z" fill="#051432"/>
<path d="M10.5105 18.0397V27.7195C7.9296 27.7195 5.83917 25.5537 5.83917 22.8796C5.83917 20.2056 7.9296 18.0397 10.5105 18.0397Z" fill="#F24725"/>
<path d="M5.83918 27.8455V15.7458C2.61595 15.7458 0 18.4561 0 21.7957C0 25.1352 2.61595 27.8455 5.83918 27.8455Z" fill="#F24725"/>
<g opacity="0.5">
<path d="M9.03124 2.76117C8.40491 2.76117 7.65555 3.035 7.29764 3.60549V2.89809H6.00024V10.8279H7.29764V7.51905C7.65555 8.08954 8.38254 8.36337 9.04243 8.36337C10.4181 8.36337 11.6037 7.26803 11.6037 5.56798C11.6037 3.85651 10.4069 2.76117 9.03124 2.76117ZM8.82992 7.13112C8.08056 7.13112 7.32001 6.51499 7.32001 5.56798C7.32001 4.63237 8.03582 3.99342 8.82992 3.99342C9.6352 3.99342 10.3063 4.68942 10.3063 5.56798C10.3063 6.45794 9.6352 7.13112 8.82992 7.13112Z" fill="#051432"/>
<path d="M15.287 8.36337C16.7746 8.36337 18.072 7.24521 18.072 5.55656C18.072 3.86792 16.7746 2.76117 15.287 2.76117C13.7995 2.76117 12.5133 3.86792 12.5133 5.55656C12.5133 7.24521 13.7995 8.36337 15.287 8.36337ZM15.287 7.13112C14.4818 7.13112 13.8219 6.49217 13.8219 5.55656C13.8219 4.64378 14.4818 3.99342 15.287 3.99342C16.0923 3.99342 16.7634 4.64378 16.7634 5.55656C16.7634 6.49217 16.0923 7.13112 15.287 7.13112Z" fill="#051432"/>
<path d="M25.5022 2.89809L24.395 6.33243L23.2877 2.89809H22.1357L21.0284 6.33243L19.9212 2.89809H18.5231L20.458 8.22645H21.5429L22.7061 4.58673L23.9252 8.22645H25.0213L26.9003 2.89809H25.5022Z" fill="#051432"/>
<path d="M32.7919 5.51093C32.7919 3.8451 31.6175 2.76117 30.13 2.76117C28.6313 2.76117 27.3898 3.85651 27.3898 5.55656C27.3898 7.22239 28.5753 8.36337 30.13 8.36337C31.0807 8.36337 32.009 7.9298 32.4899 7.15394L31.6175 6.48076C31.3155 6.91433 30.7675 7.16534 30.2083 7.16534C29.4254 7.16534 28.8661 6.766 28.7207 6.02437H32.7695C32.7807 5.8304 32.7919 5.65925 32.7919 5.51093ZM28.7207 5.10017C28.8773 4.29008 29.4477 3.93638 30.1412 3.93638C30.8682 3.93638 31.4274 4.36995 31.5057 5.10017H28.7207Z" fill="#051432"/>
<path d="M36.7794 2.76117C36.1307 2.76117 35.5603 3.1491 35.2807 4.03906V2.89809H33.9833V8.22645H35.2919V6.36666C35.2919 4.87198 35.7616 4.00483 36.6117 4.00483C36.8018 4.00483 37.0702 4.03906 37.3722 4.1988L37.6295 2.94372C37.4281 2.82963 37.0926 2.76117 36.7794 2.76117Z" fill="#051432"/>
<path d="M43.4194 5.51093C43.4194 3.8451 42.245 2.76117 40.7574 2.76117C39.2587 2.76117 38.0172 3.85651 38.0172 5.55656C38.0172 7.22239 39.2028 8.36337 40.7574 8.36337C41.7081 8.36337 42.6364 7.9298 43.1174 7.15394L42.245 6.48076C41.943 6.91433 41.395 7.16534 40.8357 7.16534C40.0528 7.16534 39.4936 6.766 39.3482 6.02437H43.397C43.4082 5.8304 43.4194 5.65925 43.4194 5.51093ZM39.3482 5.10017C39.5048 4.29008 40.0752 3.93638 40.7686 3.93638C41.4956 3.93638 42.0548 4.36995 42.1331 5.10017H39.3482Z" fill="#051432"/>
<path d="M48.6036 0V3.59408C48.2457 3.035 47.5187 2.76117 46.8588 2.76117C45.4832 2.76117 44.2976 3.8451 44.2976 5.55656C44.2976 7.25662 45.4943 8.36337 46.87 8.36337C47.5075 8.36337 48.2457 8.07813 48.6036 7.51905V8.22645H49.901V0H48.6036ZM47.0714 7.13112C46.2661 7.13112 45.6062 6.43512 45.6062 5.54516C45.6062 4.65519 46.2661 3.99342 47.0714 3.99342C47.8207 3.99342 48.5813 4.60955 48.5813 5.54516C48.5813 6.48076 47.8655 7.13112 47.0714 7.13112Z" fill="#051432"/>
<path d="M57.2209 2.76117C56.561 2.76117 55.834 3.035 55.4761 3.60549V0H54.1787V8.22645H55.4761V7.50764C55.834 8.07813 56.5834 8.36337 57.2097 8.36337C58.5854 8.36337 59.7822 7.25662 59.7822 5.55656C59.7822 3.8451 58.5966 2.76117 57.2209 2.76117ZM57.0084 7.13112C56.2143 7.13112 55.4985 6.48076 55.4985 5.54516C55.4985 4.60955 56.2591 3.99342 57.0084 3.99342C57.8137 3.99342 58.4848 4.65519 58.4848 5.54516C58.4848 6.43512 57.8137 7.13112 57.0084 7.13112Z" fill="#051432"/>
<path d="M64.3299 2.89809L62.9878 6.27538L61.6344 2.89809H60.214L62.2943 7.84993L61.1199 10.8279H62.4845L65.728 2.89809H64.3299Z" fill="#051432"/>
</g>
</svg>
